<svg width="1367" height="230" viewBox="0 0 1367 230" fill="none" xmlns="http://www.w3.org/2000/svg">
<g clip-path="url(#clip0_22355_13)">
<path d="M687.22 146.45C686.95 158.38 691.11 153.93 694.64 157.72C696.32 159.52 695.42 163.23 696.58 165.14C698.13 167.7 711.94 170.98 698.38 176.29C695.3 183.8 704.98 183.89 705.77 185.08C706.5 186.18 705.36 190.85 706.91 193.03C708.18 194.8 716.36 194.79 714.69 203.58L709.47 204.98L709.09 209.55L714.7 211.32C713.57 201.06 716.41 206.02 723.49 205.84L724.01 211.37L726.2 212.43C729.32 211.89 732.26 210.11 731.09 206.54C730.12 203.6 722.01 204.99 724.56 194.45C726.94 192.12 731.79 193.57 731.27 188.8C727.23 183.57 722.76 184.89 724.56 175.76C725.04 173.79 731.83 175.27 731.27 170.11C727.23 164.88 722.76 166.2 724.56 157.07C739.05 151.5 727.05 149.5 725.88 145.69C724.47 141.08 728.29 137.27 732.72 138.87C735.1 139.73 734.13 146.15 740 144.26L739.88 138.88L734.53 137.62C734.32 136.48 734.59 135.37 734.99 134.3C737.66 127.17 743.28 132.3 746.2 136.4C750.46 136 751.92 133.02 750.84 129.01L745.51 126.08C749.53 117.14 751.24 126.68 753.94 127.61C761.8 130.3 760.79 120.01 762.14 119.09C763.57 118.12 768.51 120.22 770.27 117.88L772 110.27L780.64 110.11C780.54 107.52 781.46 103.13 783.98 101.92C790.93 98.58 789.31 104.91 791.64 106.35C797.5 109.98 800.3 100.26 790.6 100.23C794.52 84.27 799.17 98.4 801.2 99.06C803.59 99.84 806.11 98.46 806.84 96.18C809.36 88.37 797.51 91.86 803.23 84.88C806.98 83.85 809.54 94.81 816.73 89.03L818.17 81.69L826.86 81.58V72.77C824.37 72.5 821.08 73.36 818.78 72.6C816.64 71.9 811.9 57.98 810.35 71.67L816.48 72.69C817.37 74.91 817.62 78.07 815.17 79.28C809.59 81.1 808.77 73.04 807.42 72.72C806.41 72.48 800.02 72.56 799.5 72.91C799.32 77.42 795.07 82.39 791.09 78.28C787.97 75.07 789.81 70.75 780.79 72.9C779.68 82.22 772.06 83.31 770.1 73.8L762.09 73.98C761.67 77.51 761.08 80.37 756.93 80.45C751.6 80.55 753.56 74.46 749.31 73.81C741.63 72.64 743.31 79.43 742.05 80.32L735.55 79.95C733.78 78.8 734.17 74.18 733.16 73.01C731.72 71.33 727.58 73.3 727.04 68.67C726.23 61.61 732.99 65.03 733.48 61.24C734.76 51.35 727.63 54.91 727.04 49.98C726.14 42.47 737.9 46.94 732.86 36.46C731.14 32.88 719.02 30.44 733.45 24.76V17.41C731.64 16.88 723.88 11.76 728.52 10.15C734.58 8.05 731.18 16.67 738.29 15.61C743.65 14.81 741.34 6.34 749.32 7.86C753.49 8.65 752.5 16.95 760.22 14.55C761.75 14.12 760.07 6.35 768.01 7.86C772.2 8.65 770.84 16.83 778.9 14.55L780.79 8.01C783.57 7.85 787.52 6.87 789.39 9.62C791.84 13.22 789.48 16.88 798.02 14.25L799.48 8.01C801.84 7.83 805.94 7.17 807.65 8.95C810.26 11.65 807.64 17.43 816.72 14.26L818.18 8.02C829.35 4.57 824.96 15.83 832.78 15.23C836.8 14.92 835.98 11.18 836.87 8.02C847.49 4.46 844.29 15.43 850.5 15.43C855.31 15.43 854.71 11.73 855.56 8.02C866.18 4.46 862.98 15.43 869.19 15.43C874 15.43 873.4 11.73 874.25 8.02C884.87 4.46 881.67 15.43 887.88 15.43C892.69 15.43 892.09 11.73 892.94 8.02C903.56 4.46 900.36 15.43 906.57 15.43C911.38 15.43 910.78 11.73 911.63 8.02C922.25 4.46 919.05 15.43 925.26 15.43C930.07 15.43 929.47 11.73 930.32 8.02C940.94 4.46 937.74 15.43 943.95 15.43C948.76 15.43 948.16 11.73 949.01 8.02C959.63 4.46 956.43 15.43 962.64 15.43C967.45 15.43 966.85 11.73 967.7 8.02C978.32 4.46 975.12 15.43 981.33 15.43C986.14 15.43 985.54 11.73 986.39 8.02C997.01 4.46 993.81 15.43 1000.02 15.43C1004.83 15.43 1004.24 11.72 1005.08 8.01L1013.09 7.83C1015.12 8.38 1011.89 16.16 1020.92 15.7C1024.12 15.54 1023.51 10.24 1023.67 7.91C1032.14 6.76 1031.62 9.97 1032.46 16.7C1047.45 18.1 1037.05 27.62 1033.53 25.02C1031.51 22.66 1032.79 19.37 1032.46 16.7C1029.94 16.46 1027.29 16.85 1024.76 16.7L1025.5 23.07L1032.32 25.63C1032.12 33.54 1032.33 34.96 1039.64 37.55L1040.06 41.31L1033.52 43.71L1032.44 35.39L1026.32 37.5C1023.09 43.81 1031.48 43.09 1032.31 44.32C1033.08 45.47 1031.72 50.7 1033.45 53.36C1034.96 55.67 1040.7 53.9 1040.21 59.02C1035.78 65.94 1031.79 60.66 1032.43 54.08C1028.71 53.26 1022.04 57.78 1024.82 61.69C1025.72 62.95 1035.5 62.24 1030.31 71.19L1023.76 71.55L1022.43 65.2L1016.11 65.24L1014.93 71.6L1022.1 73.82L1021.28 79.21L1014.97 79.25L1013.74 72.78C1007.01 73.42 1003.66 73.81 1004.96 81.58H995.05L994.9 88.57C994.02 91.3 988.78 90.46 986.4 90.22C985.54 88.71 985.47 85.18 984.11 84.26C978.41 80.39 974.3 92.58 985.05 91.56C987.52 96.12 980.63 101.7 977.56 99.05C977.04 98.6 977.44 93.67 974.53 92.72C968.61 90.78 968.4 95.78 967.55 100.24L974.09 101.41L974.15 106.85L968.77 106.73L967.4 101.49L958.8 101.4L957.39 108.77L948.97 110.26L947.6 117.68C941.27 119.26 938.57 119.99 937.74 112.47C928.27 111.05 930.16 118.86 938.5 119.98L937.86 127.74L930.2 127.69C930.22 125.46 929.66 120.83 927.23 120.15C923.01 119.93 921.48 122.09 921.34 126.08C921.23 129.32 926.5 126.68 929.07 129.37C932.17 132.62 928.26 139.3 937.92 136.04L940.1 128.85C940.61 128.48 946.93 129.91 947.74 130.49C950.54 132.52 947.8 139.74 956.68 135.89L958.68 129.31C959.74 128.57 963.39 128.56 964.83 128.75C968.25 129.19 966.54 136.12 971.44 136.58C977.67 137.15 975.76 128.99 976.95 128.8L985.17 129.34C988.12 139.41 993.92 139.22 995.65 128.77L1003.86 129.34C1005.87 130.69 1004.68 137.13 1009.84 136.61C1016.7 132.69 1014.54 125.88 1006.01 127.74L1006.16 124.04C1006.93 121.68 1010.54 121.48 1012.07 123.34C1015.63 127.67 1010.48 129.67 1022.57 129.33C1024.13 130.44 1023.52 134.88 1024.94 136.3C1026.36 137.72 1030.83 137.11 1031.91 138.68C1032.99 140.25 1031.93 144.77 1033.39 146.84C1034.26 148.07 1036.98 147.8 1038.34 148.72C1045.38 153.5 1029.52 163.15 1032.39 147.54C1016.06 152.62 1031.6 155.49 1032.27 156.47C1033.05 157.63 1031.65 163.11 1033.4 165.53C1034.3 166.77 1036.97 166.48 1038.34 167.41C1045.38 172.19 1029.52 181.84 1032.39 166.23C1016.05 171.32 1031.6 174.17 1032.27 175.16C1033.05 176.32 1031.65 181.8 1033.4 184.22C1034.3 185.46 1036.97 185.17 1038.34 186.1C1045.38 190.88 1029.52 200.53 1032.39 184.92C1016.05 190.01 1031.6 192.86 1032.27 193.85C1033.05 195.01 1031.65 200.49 1033.4 202.91C1034.3 204.15 1036.97 203.86 1038.34 204.79C1045.58 209.7 1030.54 217.71 1032.39 203.61C1022.07 205.84 1021.48 212.03 1032.36 213.57C1032.89 218 1029.49 223.96 1024.65 220.7C1022.24 219.07 1023.71 209.69 1015.04 214.85L1012.99 221.25L1005.03 221.09L1003.55 214.88C1001.35 213.25 998.59 213.34 996.35 214.85L994.87 221.06L986.89 221.27C984.63 210.5 978.88 211.26 975.61 221.26L967.64 221.1L966.16 214.89L962.76 213.8C955.61 216.95 960.85 223.6 949.51 221.28L947.47 214.89L944.07 213.8C938.95 214.42 939.94 220.86 938.23 221.26L930.26 221.1L928.8 214.86C926.48 213.87 923.67 213.41 921.96 215.76C918.66 220.29 922.84 222.45 912.13 221.28L910.11 214.86C907.79 213.87 904.98 213.41 903.27 215.76C899.97 220.29 904.15 222.44 893.43 221.28C890.5 211.39 885.34 211.63 882.15 221.26L874.19 221.09L872.46 215.68C866 211.99 865.77 216.68 863.46 221.26C853.5 223.71 856.17 214.52 850.44 214.5C845.41 214.49 847.24 218.53 844.77 221.26C834.81 223.71 837.48 214.52 831.75 214.5C826.72 214.49 828.55 218.53 826.08 221.26C816.12 223.71 818.79 214.52 813.06 214.5C808.03 214.49 809.86 218.53 807.39 221.26C797.43 223.71 800.1 214.52 794.37 214.5C789.93 214.49 790.55 217.83 789.28 221.06C778.69 224.97 781.34 210.72 772.35 215.68L770.62 221.08C760.01 224.95 762.66 210.73 753.66 215.68L751.93 221.08C741.32 224.95 743.97 210.73 734.97 215.68L733.26 221.1C727 222.45 724.77 218.29 724.34 212.66C723.9 212.02 721.57 211.45 720.65 211.41C709.74 210.89 718.21 220.07 711.9 221.25C703.16 222.87 706.51 210.62 697.59 215.69L695.31 221.29C684.55 224.3 688.14 210.66 678.9 215.69L676.62 221.29C667 223.98 669.12 214.51 663.55 214.51C658.21 214.51 660.12 220.44 655.84 221.25C647.75 222.78 650.73 214.51 644.86 214.51C639.5 214.51 641.34 220.63 637.13 221.28C629.27 222.49 632.03 214.8 626.16 214.79C620.29 214.78 623.34 220.91 617.29 221.16C609.91 221.46 613.6 214.08 606.6 214.87C601.82 215.41 604.14 221.36 598.68 221.11C592.74 220.83 594.28 215.84 592.36 213.8C591.27 212.64 587.48 212.31 585.95 209.77C584.59 207.51 585.28 204.72 583.94 202.99C582.91 201.66 580.24 201.65 578.89 200.33C577.11 198.58 577.74 195.13 573.12 194.06C562.61 191.64 564.06 198.61 561.18 199.21C556.19 194.53 552.93 195.08 546.57 193.86L542.44 199.07C537.28 196.79 535.76 192.57 528.47 195.02C526.51 195.68 526.7 199.05 523.88 199.33C520.2 199.7 519.58 195.16 515.12 194.75C508.48 194.13 508.48 198.98 505.15 199.3C501.44 199.66 500.9 195.17 496.43 194.75C489.24 194.07 490.09 198.87 488.49 199.27C484.01 200.41 480.43 196.48 476.07 197.04L478.13 208.4C477.37 210.66 473.66 210.6 472.27 212.47C470.71 214.56 471.63 218.29 469.24 219.39C462.92 222.3 462.69 215.59 457.93 215.61C454.41 215.62 453.49 218.84 450.83 219.68C444.71 221.6 443.57 215.6 439.24 215.61C435.37 215.61 433.95 220.44 429.42 220.12C426.12 219.89 423.58 215.79 420.55 215.79C417.31 215.79 414.81 220.39 410.73 220.12C407.44 219.9 404.88 215.78 401.85 215.79C399.13 215.79 396.61 219.48 393.08 219.61C388.79 219.76 385.83 215.79 383.16 215.79C380.62 215.79 378.84 218.82 375.47 219.12C370.14 219.6 367.46 215.79 364.46 215.8C361.99 215.8 360.61 218.24 358.71 218.77C353.93 220.1 350.87 217.6 346.47 216.71C343.8 209.61 350.3 208.8 351.89 206.18C353.01 204.34 352.86 201.22 354.17 198.84C356.86 193.94 364.31 185.88 367.08 180.97C368.24 178.91 368.07 176.37 369.36 174.45C370.47 172.79 373.25 172.1 373.58 171.54C374.77 169.52 372.86 164.12 374.38 160.79C375.07 159.27 377.66 158.13 378.68 156.29C380.9 152.28 382.91 148.87 385.16 145.07C386.9 142.14 386.46 138.74 387.57 136.59C388.52 134.75 391.93 134.27 392.32 132.63C392.71 130.99 390.49 126.86 391.64 123.06C392.51 120.17 396.1 119.65 396.64 118.73C397.51 117.26 396.81 113.45 398.21 110.95C399.45 108.74 402.59 108.45 403.32 106.13C404.46 102.48 401.64 98.53 402.34 95.57C402.59 94.53 405.13 94.24 406.21 92.58C407.69 90.3 407.54 86.64 408.76 84.11C409.98 81.58 413.31 79.78 414.07 77.24C414.88 74.48 413.33 72.49 413.85 70.55C414.54 67.97 417.57 67.6 417.82 66.54C418.37 64.26 417.41 61.04 418.03 58.2C419.07 53.47 427.13 49.92 424.51 42.15L429.87 40.91C429.95 37.04 426.96 34.79 427.67 30.55C428.17 27.55 431.65 26.34 432.93 23.65C434.21 20.96 433.9 16.69 434.46 15.83C434.82 15.28 440.72 13.82 442.27 13.19C443.71 12.6 444.67 10.8 446.06 10.37C452.2 8.45 453.44 14.06 457.92 14.06C462.01 14.06 464.53 8.97 467.65 9.27C470.44 9.54 473.34 14.74 477.56 14.27C481.2 13.86 481.38 8.43 486.48 9.03C490.31 9.48 492.34 17.26 498.51 13.31C500.67 11.93 500.33 8.66 505.13 9.08C509.9 9.5 509.78 14.58 514 14.43C518.25 14.28 518.25 10.66 520.33 9.77C527.68 6.6 528.05 14.6 532.69 14.43C537.33 14.26 537.19 8.1 543.65 9.02C547.67 9.59 546.69 14.63 551.39 14.66C556.74 14.7 554.95 8.58 561.29 8.94C566.69 9.25 565.27 14.66 570.09 14.66C574.91 14.66 573.38 8.57 579.98 8.93C585.38 9.22 583.96 14.66 588.78 14.66C593.6 14.66 592.07 8.57 598.67 8.93C604.07 9.22 602.65 14.66 607.47 14.66C612 14.66 611.25 10.19 614.27 9.24C621.9 6.84 620.59 12.88 623.45 15.04C625.17 16.34 629.23 16.29 629.81 16.94C630.66 17.89 630.33 23.9 631.35 25.29C633.27 27.93 644.57 29.03 633.41 37.25C631.59 42.56 638.03 42.81 639.63 44.5C641.29 46.26 640.41 50.02 641.56 51.93C642.52 53.52 646.37 53.88 647.68 55.7C649.27 57.91 648.46 61.27 649.7 63.31C650.63 64.83 655.51 65.16 656.28 68.06C657.09 71.56 653.44 72.05 651.06 72.97C648.46 80.11 656.19 80.05 658 82.75C659.26 84.63 658.74 88.56 660.26 90.38C661.7 92.09 666.12 92.01 667.17 95.59C669.18 102.45 662.85 100.67 661.97 103.16C659.88 109.07 669.56 110.79 668.49 102.5C676.63 102.13 675.74 109.25 668.49 110.23C669.65 111.93 669.18 114.45 669.83 116.01C670.93 118.67 674.87 118.55 676.28 120.55C677.72 122.59 676.86 125.29 678.3 127.33C679.56 129.11 683.56 129.59 684.45 131.07C688.46 137.76 681.95 137.79 680.85 139.05C677.3 143.11 683.22 146.36 687.19 146.49C687.23 144.56 687.92 142.84 688.3 141C695.28 140.7 692.99 146.67 687.19 146.49L687.22 146.45ZM898.33 18.91H896.14V22.2H898.33V18.91ZM917.02 18.91H914.83V22.2H917.02V18.91ZM935.71 18.91H933.52V22.2H935.71V18.91ZM952.22 22.2C956.25 22.18 956.25 18.93 952.22 18.91V22.2ZM970.91 22.2C974.94 22.18 974.94 18.93 970.91 18.91V22.2ZM989.6 22.2C993.63 22.18 993.63 18.93 989.6 18.91V22.2ZM1008.85 18.91L1007.21 20.55L1009.92 22.19L1011.56 20.55L1008.85 18.91ZM734.51 32.09C736.81 32.22 738.63 32.51 739.98 30.45C738.63 28.39 736.81 28.67 734.51 28.81V32.1V32.09ZM734.51 50.78C736.81 50.91 738.63 51.2 739.98 49.14C738.63 47.08 736.81 47.36 734.51 47.5V50.79V50.78ZM648.74 63.99L644.53 65.27L644.36 69.48H648.75V63.99H648.74ZM834.56 66.19C832.67 65.77 831 65.03 829.34 66.43L827.97 71.67L833 70.67L834.56 66.19ZM738.9 70.58C739.08 70.45 740.2 67.44 738.93 66.71C731.55 62.41 734.79 73.59 738.9 70.58ZM792.79 66.19C791.53 67.08 791.13 72.9 795.52 71.67C799.43 70.58 795.87 64.01 792.79 66.19ZM777.38 67.29C775.64 65.55 772.35 68.83 774.09 70.58C775.83 72.32 779.12 69.04 777.38 67.29ZM842.25 74.98C840.3 72.89 837.33 79.38 840.61 79.35C841.74 79.34 842.93 75.71 842.25 74.98ZM991.24 75C990.09 75 986.77 79.54 990.15 80.47C995.42 81.92 993.78 75.02 991.24 75ZM542.76 118.57C547.21 111.87 540.77 113.15 538.26 110.14C535.94 107.37 537.53 102.07 532.69 101.35C526 100.35 528.99 105.5 526.79 108.6C524.78 111.44 519.01 109.98 520.09 117.22C520.41 119.39 523.27 121.44 522.29 124.45C504.42 118.25 521.23 130.42 515.42 136.29C512.48 139.26 508.34 137.23 510.19 146.45C516.7 149.55 520.71 141.56 523 141.12C526.61 140.42 528.78 146.28 529.66 146.5C536.83 148.23 539.85 137.27 546.05 141.98C547.44 143.04 548.21 148.17 553.13 144.85C558.23 141.41 549.61 137.42 548.62 136.06C547.21 134.14 547.61 131.5 546.37 129.51C544.28 126.17 538.24 126.45 540.63 120.32C541.09 119.15 542.47 118.99 542.76 118.57ZM942.32 103.57C941.61 104.28 942.35 109.67 945.05 109.06C949.27 108.11 944.83 101.06 942.32 103.57ZM786.18 112.37C779.39 111.2 784.81 117.13 786.18 115.66V112.37ZM913.73 135.45C921.25 136.88 921.16 127.57 913.9 131.24L913.73 135.45ZM926.92 139.86C926.09 139.04 922.47 139.35 923.64 142.59C925 146.38 928.37 141.3 926.92 139.86ZM945.61 143.14C945.59 139.11 942.34 139.11 942.32 143.14H945.61ZM964.3 140.96H961.01V143.15H964.3V140.96ZM982.99 140.96H979.7V143.15H982.99V140.96ZM1001.68 140.96H998.39V143.15H1001.68V140.96ZM694.92 168.45C692.89 168.19 691.69 168.38 690.54 170.11V171.74H694.92V168.45ZM580.56 188.24H578.93C577.2 189.4 577.01 190.6 577.27 192.63H580.56V188.24ZM562.97 192.62C563.33 190.62 561.76 188.98 559.68 189.33L558.57 192.61H562.96L562.97 192.62ZM589.36 198.13H584.97V202.52C586.87 201.56 589.82 200.78 589.35 198.13H589.36ZM954.4 206.93H952.21V210.22H954.4V206.93ZM973.1 206.93H970.91V210.22H973.1V206.93ZM991.79 206.93H989.6V210.22H991.79V206.93ZM1008.29 210.22C1012.32 210.2 1012.32 206.95 1008.29 206.93V210.22Z" fill="white"/>
<path d="M116.57 88.17L212.07 92.41L213.44 12.41C220.56 10.68 226.96 12.36 233.67 12.36C255.56 12.36 277.79 10.68 299.63 11.1C303.04 11.17 306.64 13.22 309.39 13.05C312.45 12.87 314.72 10.81 319.41 11.15C325.56 11.59 329.52 14.1 329.82 20.63C329.98 24.04 327.06 27.51 327.06 30.43C327.06 33.34 329.96 36.79 329.81 40.23C329.68 43.3 326.77 46.45 326.85 48.93C326.93 51.45 329.68 55.12 329.81 58.01C329.97 61.53 326.94 65.19 326.85 68C326.77 70.47 329.67 73.62 329.81 76.7C329.98 80.44 326.77 83.63 326.85 86.31C326.94 89.12 329.96 92.76 329.81 96.3C329.68 99.44 326.65 102.79 326.65 105.19C326.65 107.59 329.67 110.93 329.8 114.08C329.97 117.92 326.65 121.24 326.65 123.88C326.65 126.28 329.67 129.62 329.8 132.77C329.97 136.61 326.65 139.93 326.65 142.57C326.65 144.97 329.67 148.31 329.8 151.46C329.97 155.3 326.65 158.62 326.65 161.26C326.65 163.66 329.67 167 329.8 170.15C329.97 173.99 326.65 177.31 326.65 179.95C326.65 182.59 329.97 185.91 329.8 189.75C329.66 192.9 326.65 196.24 326.65 198.64C326.65 203.46 332.73 206.29 327.91 214.28C322.8 222.74 313.97 216.75 308.43 216.75C305.4 216.75 302.71 218.93 299.6 219.03C295.99 219.15 293.58 217 290.77 216.85C287.73 216.69 284.09 218.71 280.95 218.74C265.57 218.88 249.13 217.04 233.67 217.01C227.58 217 220.82 219.86 214.1 216.8C210.05 211.14 213.4 204.22 213.42 198.63C213.42 196.02 212.18 193.59 212.17 190.97C212.14 183.11 213.74 175.53 212.22 167.3C201.13 165.31 189.85 166.69 178.64 166.24C163.5 165.63 147.7 165.14 132.52 163.98C130.1 163.8 116.56 159.92 116.56 163.45V217.88L-0.01 217.31L0.02 11.21L116.56 12.85V88.17H116.57Z" fill="white"/>
<path d="M1312.86 137.65C1313.05 143.1 1311.63 148.38 1305.39 145.11C1305.11 142.73 1304.03 139.98 1304.07 137.65C1306.98 137.74 1309.97 137.45 1312.87 137.65H1312.86Z" fill="white"/>
<path d="M1061.07 25.5C1067.55 25.88 1069.82 23.19 1068.71 16.76L1062.11 14.9C1061.7 11.11 1062.87 7.82 1067.13 7.83C1070.33 7.58 1069.65 15.16 1071.69 15.66C1080.81 17.91 1078.71 8.3 1080.43 7.85L1088.45 8.03C1088.98 18.64 1098.03 18.64 1098.56 8.03L1106.58 7.85C1108.34 18.26 1116.26 19.13 1117.25 8.03L1125.27 7.85C1127.03 18.26 1134.95 19.13 1135.94 8.03L1143.96 7.85C1145.72 18.26 1153.64 19.13 1154.63 8.03L1162.65 7.85C1164.41 18.26 1172.33 19.13 1173.32 8.03L1181.34 7.85C1183.74 19.55 1191.32 18.2 1192.43 6.84L1200.6 8.02L1202.85 15.11L1208.86 15.68L1211.12 6.84L1219.28 8.03L1220.54 15.56L1227.55 15.68L1229.81 6.84L1237.97 8.03L1239.23 15.56L1246.24 15.68L1248.5 6.84L1256.66 8.03L1257.92 15.56L1264.93 15.68L1266.68 6.82L1275.36 8.03L1276.62 15.56L1283.63 15.68L1285.38 6.82L1294.06 8.03L1295.32 15.56L1302.33 15.68L1304.08 6.82L1312.76 8.03L1314.02 15.56L1321.03 15.68L1322.78 6.82L1331.46 8.03L1333.3 15.68L1340.25 15.5L1341.52 7.98L1349.05 8.04C1349.93 10.91 1350.13 13.73 1350.26 16.72C1347.71 16.59 1345.11 16.8 1342.56 16.72L1343.85 24.24L1350.25 25.52C1350.17 22.6 1350.4 19.64 1350.26 16.72C1357.29 17.09 1359.99 17.17 1359.06 25.52H1351.35L1351.5 34.17L1357.98 35.94L1359.06 44.21L1351.84 45.23L1351.99 53.13L1358.57 55.13C1361.15 63.04 1356.86 63.21 1350.26 62.89C1350.13 60.26 1350.26 57.74 1349.07 55.29C1345.23 52.65 1336.07 62.21 1350.26 62.89C1350.41 65.8 1350.16 68.78 1350.26 71.69L1341.57 71.57L1340.3 64.05C1332.49 62.57 1332.27 66.19 1331.55 72.79L1322.81 71.63L1320.99 63.92L1314.12 64.14L1312.86 71.67L1305.86 71.54L1302.84 64.12C1293.25 67.21 1293.96 57.29 1291.31 56.39C1284.55 54.08 1284.15 65.75 1294.19 62.88C1293.96 65.29 1295.29 70.59 1292.39 71.55C1285.31 73.91 1286.58 66.22 1284.28 64.54C1282.63 63.34 1277.75 63.11 1275.49 62.88C1275.25 58.57 1274.19 53.34 1268.81 55.66L1266.69 62.88C1269.56 63.11 1272.63 62.59 1275.48 62.88C1275.61 65.27 1275.48 67.63 1274.47 69.84C1266.37 75.57 1268.06 65 1265.63 63.38L1256.83 62.83C1257.21 52.7 1247.72 51.97 1247.99 62.87C1250.96 63.15 1253.87 63.28 1256.79 63.98L1255.45 70.31C1250.29 73.9 1248.1 67.49 1247.99 62.88C1245.33 62.63 1242.56 63.26 1239.88 62.74L1236.85 55.33L1230.32 55.67L1229.77 62.96L1236.99 63.99C1236.99 75.6 1230.28 72.61 1229.15 63.03L1220.64 62.75L1217.61 55.33L1210.6 55.18V62.89C1208.36 62.89 1203.64 63.18 1202.06 61.54C1199.59 58.98 1201.9 53.63 1192.48 54.08L1190.89 62.41C1189.6 63.3 1184.01 63.04 1182.02 62.89C1181.58 60.38 1181.56 57.82 1179.88 55.68C1176.48 53.31 1173.23 58.98 1175.68 61.54C1177.7 62.29 1179.87 62.74 1182.02 62.9C1182.5 65.63 1181.31 69.12 1183.64 71.73L1190.68 72.93C1192 79.34 1192.27 80.8 1199.14 81.54C1202.19 81.87 1200.19 74.43 1202.41 72.78L1209.36 74.05C1209.85 81.23 1212.35 82.18 1219.36 81.55L1221.18 73.84L1228.09 74.02L1229.94 81.66L1237.96 81.46L1240.23 74.39L1245.11 74.04C1246.06 74.25 1246.29 75.02 1246.73 75.74C1249.96 81.1 1244.73 82.48 1256.66 81.75L1258.43 88.23L1264.58 88.83L1265.61 81.61H1257.9C1258.02 78.5 1256.7 74.55 1260.67 73.87C1267.72 72.67 1264.44 79.7 1266.62 81.14C1270.05 83.4 1277.33 79.13 1276.82 89.07C1284.06 92.56 1284.94 87.91 1285.4 81.61L1294.08 82.82L1295.92 90.47L1302.83 90.25L1304.09 82.72C1311.97 81.83 1312.74 82.91 1314.12 90.27L1322.78 90.42L1322.93 83.98L1328.63 82.82C1331.29 83.63 1331.08 88.99 1333.11 90.52C1335.58 92.38 1338.93 90.87 1340.22 91.66C1341.37 92.36 1341.01 97.9 1341.97 99.26C1343.75 101.78 1353.33 99.22 1350.26 110.22H1342.55L1343.21 118.03L1350.1 120.26L1350.26 128.91H1341.45L1341.93 137.78L1348.69 139.81C1350.56 149.4 1340.17 146.02 1341.41 137.75C1338.14 137.53 1334.83 137.84 1331.56 137.7C1331.4 136.28 1330.41 132.27 1329.42 131.59C1325.08 129.54 1321.91 133.16 1324.91 137.2C1327.05 138.14 1329.35 137.6 1331.56 137.69C1332.01 141.66 1332.62 146.63 1327.7 146.59C1322.28 146.55 1324.08 141.45 1321.64 139.36C1319.66 137.67 1315.39 137.86 1312.87 137.68C1312.78 135.13 1312.12 130.23 1309.02 129.91C1305.02 129.36 1304.13 134.53 1304.08 137.68C1296.62 137.45 1293.87 139.49 1292.98 130.1L1286.42 130.47L1285.87 137.76L1293.09 138.79C1293.09 150.4 1286.38 147.41 1285.25 137.83L1276.74 137.55C1275.55 130.14 1274.37 130.06 1267.27 128.88L1265.55 137.66C1255.05 138.07 1258.96 133.63 1256.58 130.23C1255.79 129.1 1248.69 128.34 1248.06 128.95L1246.8 136.48L1239.85 136.66L1238.01 129.01L1229.26 128.41L1227.45 122.54C1226.96 120.19 1223.6 121.15 1221.79 121.36L1220.52 127.79L1229.33 128.92L1227.2 136.11C1220.88 138.46 1220.02 134.18 1219.32 129.01L1210.77 128.76L1209 122.28C1204.51 119.3 1200.51 121.66 1201.96 127.1C1202.88 129.87 1207.28 128.74 1209.53 128.89L1209.57 134.76L1204.8 136.45C1201.49 135.67 1201.41 129.59 1200.6 129.04C1198.18 127.37 1190.57 131.82 1189.81 121.69L1184.95 121.15L1183.13 127.8L1190.68 129.06L1190.3 135.52C1180.34 141.96 1183.55 134.03 1181.55 131.05C1177.6 125.15 1167.22 137.23 1181.9 137.84L1183.29 146.35L1191.8 147.74C1191.76 157.85 1200.99 158.4 1200.74 147.6C1197.76 147.32 1194.86 147.19 1191.94 146.49C1193.11 136.58 1200.51 137.74 1200.74 147.6C1207.92 148.27 1210.92 145.26 1211.84 155.18L1218.4 154.81L1218.95 147.52L1211.73 146.49L1212.23 140.94C1219.37 136.02 1218.13 146.52 1219.57 147.45L1228.07 147.74L1230.57 155.13L1238.12 155.29V147.58C1248.39 144.86 1246.26 152.64 1249.12 154.72C1249.96 155.33 1255.05 156.47 1256.24 156.4L1257.92 147.58L1265.41 148.86C1266.56 156.04 1267.9 156.94 1275.44 156.33L1276.7 148.8L1283.65 148.62L1285.49 156.27L1294.25 156.86L1295.76 163.04C1301.01 166.13 1304.07 163.28 1302.92 157.53L1294.19 155.86L1295.77 149.74C1302.42 146.04 1302.98 150.94 1304.2 156.25C1314.77 152.89 1312.91 164.78 1317.77 165.11C1322.96 165.47 1321.53 160.08 1322.75 156.39H1313.95L1315.2 148.84C1323.72 146.56 1320.27 153.65 1322.74 155.85C1324.46 157.39 1329.11 157.22 1331.41 157.63L1332.71 165.12L1340.2 165.03L1341.46 157.49C1349.54 156.32 1349.72 159.5 1350.25 166.28C1347.36 166.05 1344.35 166.43 1341.45 166.29C1342.76 172.97 1342.99 174.36 1350.24 175.07C1350.09 172.17 1350.47 169.17 1350.24 166.28C1357.08 166.82 1360.15 166.98 1359.04 175.08H1351.33L1351.48 183.73L1357.96 185.5L1359.04 193.77L1351.82 194.79L1351.99 202.68L1358.89 204.9C1360.23 214.23 1349.55 216 1349.23 205.22C1345.55 202.52 1340.7 208.47 1342.63 211.27C1343.66 212.76 1353.03 210.58 1350.09 219.45C1349.18 222.21 1343.97 221.3 1341.56 221.13L1339.72 213.49C1332.23 212.3 1332.3 216.19 1331.54 222.36L1323.46 221.3C1321.13 209.81 1313.12 210.73 1312.85 222.36L1304.77 221.3C1301.98 209.45 1295.27 211.03 1293.58 222.38L1285.49 221.14C1284.06 209.08 1276.11 211.54 1274.89 222.38L1266.8 221.14C1265.37 209.08 1257.42 211.54 1256.2 222.38L1248.11 221.14C1246.68 209.08 1238.73 211.54 1237.51 222.38L1229.42 221.14C1228.68 215.06 1227.3 211.29 1220.75 214.9L1218.82 222.37L1210.73 221.13C1209.99 215.05 1208.61 211.28 1202.06 214.89L1200.13 222.36L1192.04 221.12C1191.3 215.04 1189.92 211.27 1183.37 214.88L1181.44 222.35L1173.35 221.11L1171.87 214.9C1164.72 211.29 1163.77 216.09 1163.33 222.32L1155.22 221.28L1153.18 214.9C1146 211.28 1145.08 216.13 1144.64 222.32L1135.96 221.11L1134.49 214.89C1127.34 211.28 1126.39 216.08 1125.95 222.31L1117.27 221.1L1115.8 214.88C1108.65 211.27 1107.7 216.07 1107.26 222.3L1098.58 221.09L1097.11 214.87C1089.96 211.26 1089.01 216.06 1088.57 222.29L1079.89 221.08C1080.05 211.19 1068.21 209.65 1069.89 221.19L1062.42 219.84L1061.09 213.51L1069.87 211.86C1068.25 210.02 1069.46 206.96 1067.73 205.2C1066.39 203.85 1062.53 203.95 1061.6 202.54C1060.38 200.7 1061.34 196.16 1061.1 193.69C1053.09 193.4 1049.82 185.95 1059.99 185.99C1059.91 188.63 1060.84 191.1 1061.1 193.69C1063.56 193.78 1068.59 192.8 1068.88 189.83C1069.38 184.64 1062.93 185.84 1061.61 183.84C1060.39 182 1061.35 177.46 1061.11 174.99C1053.1 174.7 1049.83 167.25 1060 167.29C1059.92 169.93 1060.85 172.4 1061.11 174.99C1063.57 175.08 1068.6 174.1 1068.89 171.13C1069.39 165.94 1062.94 167.14 1061.62 165.14C1060.4 163.3 1061.36 158.76 1061.12 156.29C1053.01 155.8 1049.86 148.68 1060.01 148.59C1059.93 151.23 1060.86 153.7 1061.12 156.29C1064.33 156.49 1069.31 155.64 1068.89 151.37C1068.5 147.41 1062.83 148.26 1061.62 146.45C1060.4 144.61 1061.36 140.07 1061.12 137.6C1053.01 137.11 1049.86 129.99 1060.01 129.9C1059.93 132.54 1060.86 135.01 1061.12 137.6C1064.33 137.8 1069.31 136.95 1068.89 132.68C1068.5 128.72 1062.83 129.57 1061.62 127.76C1060.41 125.95 1061.36 121.38 1061.12 118.91C1053.01 118.42 1049.86 111.3 1060.01 111.21C1059.93 113.85 1060.86 116.32 1061.12 118.91C1064.33 119.11 1069.31 118.26 1068.89 113.99C1068.5 110.03 1062.83 110.88 1061.62 109.07C1060.4 107.23 1061.36 102.69 1061.12 100.22C1053.11 99.93 1049.84 92.48 1060.01 92.52C1059.93 95.16 1060.86 97.63 1061.12 100.22C1063.58 100.31 1068.61 99.33 1068.9 96.36C1069.4 91.17 1062.95 92.37 1061.63 90.37C1060.41 88.53 1061.37 83.99 1061.13 81.52C1053.1 81.06 1050.4 73.51 1060.02 73.82C1059.94 76.46 1060.87 78.93 1061.13 81.52C1064.34 81.7 1069.32 80.88 1068.9 76.6C1068.51 72.64 1062.84 73.49 1061.63 71.68C1060.41 69.84 1061.37 65.3 1061.13 62.83C1052.75 62.51 1050.72 54.98 1060.02 55.13C1059.95 57.76 1060.88 60.24 1061.13 62.83C1063.59 62.92 1068.62 61.94 1068.91 58.97C1069.41 53.78 1062.96 54.98 1061.64 52.98C1060.42 51.14 1061.38 46.6 1061.14 44.13C1053.03 43.64 1049.88 36.52 1060.03 36.43C1059.95 39.07 1060.88 41.54 1061.14 44.13C1064.35 44.33 1069.33 43.48 1068.91 39.21C1068.52 35.25 1062.85 36.1 1061.64 34.29C1060.43 32.48 1061.4 27.92 1061.14 25.44C1053.03 24.96 1049.88 17.82 1060.04 17.74C1059.51 20.45 1060.89 23.03 1061.14 25.44L1061.07 25.5ZM1086.35 22.2C1086.86 16.35 1081.44 16.39 1081.96 22.2H1086.35ZM1105.04 22.2C1105.55 16.35 1100.13 16.39 1100.65 22.2H1105.04ZM1123.73 22.2C1124.24 16.35 1118.82 16.39 1119.34 22.2H1123.73ZM1142.42 22.2C1142.93 16.35 1137.51 16.39 1138.03 22.2H1142.42ZM1158.39 17.81C1155.7 18.42 1156.48 23.97 1159.46 23.3C1162.15 22.69 1161.37 17.14 1158.39 17.81ZM1177.08 17.81C1174.39 18.42 1175.17 23.97 1178.15 23.3C1180.84 22.69 1180.06 17.14 1177.08 17.81ZM1195.77 17.81C1193.08 18.42 1193.86 23.97 1196.84 23.3C1199.53 22.69 1198.75 17.14 1195.77 17.81ZM1217.19 17.81C1214.68 15.3 1210.25 22.34 1214.46 23.3C1217.16 23.91 1217.9 18.53 1217.19 17.81ZM1235.88 17.81C1233.37 15.3 1228.94 22.34 1233.15 23.3C1235.85 23.91 1236.59 18.53 1235.88 17.81ZM1254.58 17.81C1252.07 15.3 1247.64 22.34 1251.85 23.3C1254.55 23.91 1255.29 18.53 1254.58 17.81ZM1273.27 17.81C1270.76 15.3 1266.33 22.34 1270.54 23.3C1273.24 23.91 1273.98 18.53 1273.27 17.81ZM1291.96 17.81C1289.45 15.3 1285.02 22.34 1289.23 23.3C1291.93 23.91 1292.67 18.53 1291.96 17.81ZM1310.65 17.81C1308.14 15.3 1303.71 22.34 1307.92 23.3C1310.62 23.91 1311.36 18.53 1310.65 17.81ZM1329.34 17.81C1326.83 15.3 1322.4 22.34 1326.61 23.3C1329.31 23.91 1330.05 18.53 1329.34 17.81ZM1075.35 28.8H1073.16V32.09H1075.35V28.8ZM1349.14 36.49L1344.12 37.52L1344.69 42.6L1350.24 43.09L1349.14 36.5V36.49ZM1075.35 47.5H1073.16V50.79H1075.35V47.5ZM1189.7 47.5C1186.78 44.71 1181.12 51.52 1186.98 52.98C1189.69 53.66 1190.38 48.14 1189.7 47.5ZM1204.57 47.5C1202.36 48.12 1202.36 52.36 1204.57 52.98C1209.63 54.4 1209.63 46.09 1204.57 47.5ZM1223.26 47.5C1220.39 48.27 1221.7 52.88 1225.44 51.88C1228.31 51.11 1227 46.5 1223.26 47.5ZM1244.68 47.49H1241.39V51.88H1244.68V47.49ZM1263.37 47.5C1261.42 45.41 1258.45 51.9 1261.73 51.87C1262.86 51.86 1264.05 48.23 1263.37 47.5ZM1282.07 48.6H1278.78V50.79H1282.07V48.6ZM1305.16 61.78C1315.73 63.64 1311.48 53.01 1306.18 56.76L1305.16 61.78ZM1324.96 61.78C1327.47 64.29 1331.9 57.25 1327.69 56.29C1324.99 55.68 1324.25 61.06 1324.96 61.78ZM1171.01 66.2C1165.38 63.69 1164.08 71.13 1171.01 69.48V66.2ZM1075.35 66.19H1073.16V69.48H1075.35V66.19ZM1180.92 73.88H1175.41L1175.52 79.27H1180.81L1180.92 73.88ZM1246.89 82.68L1239.2 81.58L1240.43 89.13L1245.86 88.8L1246.89 82.69V82.68ZM1189.7 88.17C1190.37 87.53 1189.68 82.01 1186.98 82.69C1181.13 84.15 1186.78 90.96 1189.7 88.17ZM1208.41 82.67H1202.9L1203.01 88.06H1208.3L1208.41 82.67ZM1228.2 82.68H1220.5C1219.81 91.44 1228.91 91.41 1228.2 82.68ZM1075.35 84.88H1073.16V88.17H1075.35V84.88ZM1330.46 91.47L1322.76 91.49L1324.89 97.6L1330.46 98.09V91.48V91.47ZM1291.96 92.58C1289.45 90.07 1285.02 97.11 1289.23 98.07C1291.93 98.68 1292.67 93.3 1291.96 92.58ZM1311.75 92.58L1305.64 93.64C1304.86 97.6 1307.01 99.31 1310.73 97.59L1311.75 92.58ZM1253.48 93.68H1251.29V96.97H1253.48V93.68ZM1273.27 93.68C1267.77 93.27 1267.77 97.38 1273.27 96.97V93.68ZM1340.34 102.48C1339.94 101.93 1335.66 100.7 1334.91 103.09C1332.34 111.31 1343.15 106.41 1340.34 102.48ZM1075.35 103.57H1073.16V106.86H1075.35V103.57ZM1195.77 113.47L1194.13 115.11L1196.84 116.75L1198.48 115.11L1195.77 113.47ZM1216.09 113.47H1213.9V116.76H1216.09V113.47ZM1246.89 127.75C1247.59 119.02 1238.5 118.99 1239.19 127.75H1246.89ZM1264.45 122.29C1264.03 121.65 1259.44 121.65 1259 122.29C1258.35 123.23 1259.06 127.27 1260.63 127.75C1264.02 128.8 1265.56 123.98 1264.44 122.29H1264.45ZM1339.24 126.65C1339.95 125.94 1339.21 120.55 1336.51 121.16C1332.29 122.11 1336.73 129.16 1339.24 126.65ZM1075.35 122.26H1073.16V125.55H1075.35V122.26ZM1169.91 122.26C1165.88 122.28 1165.88 125.53 1169.91 125.55V122.26ZM1277.68 126.65C1278.39 127.36 1283.78 126.62 1283.17 123.92C1282.22 119.7 1275.17 124.14 1277.68 126.65ZM1300.76 122.26H1297.47V126.65H1300.76V122.26ZM1319.45 123.36H1316.16V125.55H1319.45V123.36ZM1075.35 140.96H1073.16V144.25H1075.35V140.96ZM1171.01 140.96H1166.62V144.25C1168.65 144.51 1169.85 144.32 1171 142.59V140.96H1171.01ZM1177.08 148.66C1174.87 149.28 1174.87 153.52 1177.08 154.14C1182.14 155.56 1182.14 147.25 1177.08 148.66ZM1240.29 158.55C1238.12 161.64 1244.68 165.2 1245.77 161.28C1247 156.89 1241.17 157.29 1240.29 158.55ZM1264.47 157.44L1259.46 158.47C1257.51 163.19 1260.08 164.44 1264.37 162.82L1264.47 157.43V157.44ZM1284.27 157.45H1276.57C1275.88 166.21 1284.98 166.18 1284.27 157.45ZM1186.96 158.57L1185.32 161.28L1186.96 162.92L1188.6 160.21L1186.96 158.57ZM1207.3 158.55H1204.01V162.94H1207.3V158.55ZM1222.69 158.55C1221.38 159.49 1221.57 163.98 1225.43 162.93C1229.28 161.88 1225.27 156.69 1222.69 158.55ZM1075.35 159.65H1073.16V162.94H1075.35V159.65ZM1324.96 171.74C1325.9 173.05 1330.39 172.86 1329.34 169C1328.29 165.14 1323.1 169.16 1324.96 171.74ZM1307.37 171.73C1311.4 171.71 1311.4 168.46 1307.37 168.44V171.73ZM1075.35 178.34H1073.16V181.63H1075.35V178.34ZM1349.14 186.02L1344.12 187.05L1344.69 192.13L1350.24 192.62L1349.14 186.03V186.02ZM1075.35 197.03H1073.16V200.32H1075.35V197.03ZM1175.42 206.92C1173.56 209.5 1178.75 213.51 1179.8 209.66C1180.85 205.8 1176.36 205.62 1175.42 206.92ZM1194.11 206.92C1192.25 209.5 1197.44 213.51 1198.49 209.66C1199.54 205.8 1195.05 205.62 1194.11 206.92ZM1214.47 205.83C1211.78 206.44 1212.56 211.99 1215.54 211.32C1218.23 210.71 1217.45 205.16 1214.47 205.83ZM1233.16 205.83C1230.47 206.44 1231.25 211.99 1234.23 211.32C1236.92 210.71 1236.14 205.16 1233.16 205.83ZM1251.85 205.83C1249.16 206.44 1249.94 211.99 1252.92 211.32C1255.61 210.71 1254.83 205.16 1251.85 205.83ZM1270.54 205.83C1267.85 206.44 1268.63 211.99 1271.61 211.32C1274.3 210.71 1273.52 205.16 1270.54 205.83ZM1289.23 205.83C1286.54 206.44 1287.32 211.99 1290.3 211.32C1292.99 210.71 1292.21 205.16 1289.23 205.83ZM1307.93 205.83C1305.24 206.44 1306.02 211.99 1309 211.32C1311.69 210.71 1310.91 205.16 1307.93 205.83ZM1326.62 205.83C1323.93 206.44 1324.71 211.99 1327.69 211.32C1330.38 210.71 1329.6 205.16 1326.62 205.83ZM1083.62 206.93L1081.98 208.57L1084.69 210.21L1086.33 208.57L1083.62 206.93ZM1105.04 206.93C1103.01 206.67 1101.81 206.86 1100.66 208.59V210.22H1105.04V206.93ZM1123.73 206.93C1121.7 206.67 1120.5 206.86 1119.35 208.59V210.22H1123.73V206.93ZM1142.42 206.93C1140.39 206.67 1139.19 206.86 1138.04 208.59V210.22H1142.42V206.93ZM1161.12 206.93C1160.96 206.78 1156.89 206.77 1156.73 206.93C1154.6 209.07 1159.9 213.07 1161.11 209.66C1161.28 209.18 1161.21 207.02 1161.11 206.93H1161.12Z" fill="white"/>
<path d="M1284.27 81.58H1276.56L1278.12 74.88C1282.22 71.43 1285.36 77.5 1284.27 81.58Z" fill="white"/>
<path d="M1332.65 72.78L1339.88 73.8C1341.57 83.52 1330.94 82.02 1332.65 72.78Z" fill="white"/>
<path d="M1340.34 156.34L1332.64 155.24L1333.85 148.75C1339.23 147.75 1341.04 151.36 1340.34 156.34Z" fill="white"/>
<path d="M1245.61 228.74C1244.87 229.2 1241.19 229.2 1240.45 228.74L1239.19 222.31L1246.42 223.35C1247.35 224.44 1246.21 228.36 1245.61 228.73V228.74Z" fill="white"/>
<path d="M1264.31 228.74C1263.57 229.2 1259.89 229.2 1259.15 228.74L1257.89 222.31L1265.12 223.35C1266.05 224.44 1264.91 228.36 1264.31 228.73V228.74Z" fill="white"/>
<path d="M1226.92 228.74C1226.18 229.2 1222.5 229.2 1221.76 228.74L1220.5 222.31L1227.73 223.35C1228.66 224.44 1227.52 228.36 1226.92 228.73V228.74Z" fill="white"/>
<path d="M1238.09 146.44H1230.39C1230.12 135.94 1236.5 136.92 1238.09 146.44Z" fill="white"/>
<path d="M1283 228.74C1282.26 229.2 1278.58 229.2 1277.84 228.74L1276.58 222.31L1283.81 223.35C1284.74 224.44 1283.6 228.36 1283 228.73V228.74Z" fill="white"/>
<path d="M1301.69 228.74C1300.95 229.2 1297.27 229.2 1296.53 228.74L1295.27 222.31L1302.5 223.35C1303.43 224.44 1302.29 228.36 1301.69 228.73V228.74Z" fill="white"/>
<path d="M1320.38 228.74C1319.64 229.2 1315.96 229.2 1315.22 228.74L1313.96 222.31L1321.19 223.35C1322.12 224.44 1320.98 228.36 1320.38 228.73V228.74Z" fill="white"/>
<path d="M1339.07 228.74C1338.33 229.2 1334.65 229.2 1333.91 228.74L1332.65 222.31L1339.88 223.35C1340.81 224.44 1339.67 228.36 1339.07 228.73V228.74Z" fill="white"/>
<path d="M1218.3 63.98L1218.14 70.42L1213.91 71.2C1211.35 69.53 1211.51 66.77 1211.68 63.99H1218.29L1218.3 63.98Z" fill="white"/>
<path d="M1194.22 71.57C1192.05 70.06 1193.12 60.64 1198.58 64.46C1202.06 66.89 1198.21 74.35 1194.22 71.57Z" fill="white"/>
<path d="M1209.48 223.46L1208.23 228.75H1203.07L1201.81 222.32L1209.48 223.46Z" fill="white"/>
<path d="M1190.79 223.46L1189.61 228.81C1184.95 229.75 1182.47 226.85 1183.13 222.33L1190.8 223.47L1190.79 223.46Z" fill="white"/>
<path d="M1251.97 138.82C1255.06 138.35 1257.63 145.13 1253.91 146.35C1247.49 148.45 1248.16 139.41 1251.97 138.82Z" fill="white"/>
<path d="M1274.38 138.75C1275.84 150.86 1264.23 145.5 1268.77 139.4C1269.88 137.9 1272.84 139.02 1274.38 138.75Z" fill="white"/>
<path d="M1172.11 223.43C1172.71 227.02 1169.22 230.63 1165.98 227.91L1164.43 222.32L1172.12 223.43H1172.11Z" fill="white"/>
<path d="M1153.42 223.43C1152.98 231.69 1145.41 230.03 1145.73 222.32L1153.42 223.43Z" fill="white"/>
<path d="M1301.69 80.32C1297.15 83.12 1292.78 76.82 1297.47 74.39C1301.93 72.08 1304.16 78.8 1301.69 80.32Z" fill="white"/>
<path d="M1321.65 6.8L1313.96 5.7C1314.9 -2.49 1322.33 -0.98 1321.65 6.8Z" fill="white"/>
<path d="M1059.96 204.72L1059.43 212.41C1051.67 210 1051.37 204.81 1059.96 204.72Z" fill="white"/>
<path d="M1246.88 6.8L1239.19 5.7C1240.13 -2.49 1247.56 -0.98 1246.88 6.8Z" fill="white"/>
<path d="M1340.34 6.8L1332.65 5.7C1333.59 -2.49 1341.02 -0.98 1340.34 6.8Z" fill="white"/>
<path d="M1351.35 117.86L1351.88 110.17C1359.64 112.58 1359.94 117.77 1351.35 117.86Z" fill="white"/>
<path d="M1134.73 223.43C1135.43 226.04 1132.74 229.73 1129.86 228.89L1127.04 222.33L1134.73 223.43Z" fill="white"/>
<path d="M1302.96 6.8L1295.27 5.7C1296.21 -2.49 1303.64 -0.98 1302.96 6.8Z" fill="white"/>
<path d="M1284.26 6.8L1276.57 5.7C1277.51 -2.49 1284.94 -0.98 1284.26 6.8Z" fill="white"/>
<path d="M1228.19 6.8L1220.5 5.7C1221.68 -2.56 1228.18 -1 1228.19 6.8Z" fill="white"/>
<path d="M1265.57 6.8L1257.88 5.69L1260.01 0.68C1263.19 -1.65 1266.64 3.55 1265.57 6.8Z" fill="white"/>
<path d="M1116.04 223.43C1116.06 225.9 1114.08 229.77 1111.12 228.9L1108.34 222.33L1116.03 223.43H1116.04Z" fill="white"/>
<path d="M1320.39 74.03C1322.53 77.45 1320.97 80.52 1316.74 80.47L1315.05 73.88L1320.38 74.03H1320.39Z" fill="white"/>
<path d="M1209.5 6.8L1201.81 5.7L1203.94 0.7L1207.35 0.72L1209.5 6.8Z" fill="white"/>
<path d="M1097.35 223.43C1095.17 231.9 1090.58 230.15 1089.66 222.32L1097.35 223.43Z" fill="white"/>
<path d="M1351.35 128.86C1353.68 129.9 1356.54 130.36 1357.88 132.83C1355.03 140.18 1350.22 134.77 1351.35 128.86Z" fill="white"/>
<path d="M995.09 127.75H987.4L988.61 122.39C993.38 121.17 993.81 124.04 995.09 127.75Z" fill="white"/>
<path d="M1033.58 136.55L1034.6 131.53C1039.9 127.77 1044.15 138.41 1033.58 136.55Z" fill="white"/>
<path d="M1342.55 90.37C1340.69 79.8 1351.32 84.05 1347.57 89.35L1342.55 90.37Z" fill="white"/>
<path d="M1190.8 6.8L1184.27 5.64C1183.78 -3.37 1190.63 -0.33 1190.8 6.8Z" fill="white"/>
<path d="M1172.11 6.8L1165.52 5.69C1165.15 -3.36 1171.91 -0.37 1172.11 6.8Z" fill="white"/>
<path d="M1153.42 6.8L1146.83 5.69C1146.78 -3.42 1152.58 -0.5 1153.42 6.8Z" fill="white"/>
<path d="M1078.66 223.43L1076.53 228.43C1072.52 230.25 1071.6 226.73 1072.06 223.42H1078.66V223.43Z" fill="white"/>
<path d="M1030.27 122.26L1029.79 126.72L1024.79 127.75L1025.26 123.29L1030.27 122.26Z" fill="white"/>
<path d="M1133.64 5.7H1128.13C1127.2 -1.93 1134.61 -1.79 1133.64 5.7Z" fill="white"/>
<path d="M1114.95 5.7H1109.44L1109.62 1.5L1113.87 0.7L1114.95 5.7Z" fill="white"/>
<path d="M1021.4 223.49L1021.53 227.12C1017.45 230.89 1016.25 225.9 1014.88 222.32L1021.4 223.49Z" fill="white"/>
<path d="M975.3 127.75H969.8C969.34 119.68 974.65 121.34 975.3 127.75Z" fill="white"/>
<path d="M1096.13 1.45L1096.26 5.7H1090.76L1092.93 0.73L1096.13 1.45Z" fill="white"/>
<path d="M1077.44 1.44C1080.84 5.92 1072.7 7.37 1072.06 4.04C1071.57 1.51 1075.98 -0.49 1077.44 1.44Z" fill="white"/>
<path d="M1356.83 93.68C1357.49 94.28 1356.82 99.87 1354.1 99.17C1349.02 97.85 1353.56 90.73 1356.83 93.68Z" fill="white"/>
<path d="M1002.78 223.42C1003.48 229.46 996.6 229.46 997.29 223.42H1002.78Z" fill="white"/>
<path d="M984.09 223.42C984.79 229.46 977.91 229.46 978.6 223.42H984.09Z" fill="white"/>
<path d="M965.4 223.42C966.1 229.46 959.22 229.46 959.91 223.42H965.4Z" fill="white"/>
<path d="M942.88 223.43C946.62 222.42 947.93 227.03 945.06 227.81C941.32 228.82 940.01 224.21 942.88 223.43Z" fill="white"/>
<path d="M1354.11 73.89C1357.09 73.22 1357.87 78.77 1355.18 79.38C1352.2 80.05 1351.42 74.5 1354.11 73.89Z" fill="white"/>
<path d="M1362.9 195.93C1365.88 195.26 1366.66 200.81 1363.97 201.42C1360.99 202.09 1360.21 196.54 1362.9 195.93Z" fill="white"/>
<path d="M1362.9 177.24C1365.88 176.57 1366.66 182.12 1363.97 182.73C1360.99 183.4 1360.21 177.85 1362.9 177.24Z" fill="white"/>
<path d="M1362.9 46.4C1365.88 45.73 1366.66 51.28 1363.97 51.89C1360.99 52.56 1360.21 47.01 1362.9 46.4Z" fill="white"/>
<path d="M1017.64 1.32C1021.38 0.31 1022.69 4.92 1019.82 5.7C1016.08 6.71 1014.77 2.1 1017.64 1.32Z" fill="white"/>
<path d="M998.95 1.32C1002.69 0.31 1004 4.92 1001.13 5.7C997.39 6.71 996.08 2.1 998.95 1.32Z" fill="white"/>
<path d="M979.7 1.32C982.28 -0.54 986.29 4.65 982.44 5.7C978.58 6.75 978.4 2.26 979.7 1.32Z" fill="white"/>
<path d="M1365.63 32.1C1364.69 33.41 1360.2 33.22 1361.25 29.36C1362.3 25.51 1367.49 29.52 1365.63 32.1Z" fill="white"/>
<path d="M951.12 123.36C952.06 122.05 956.55 122.24 955.5 126.1C954.45 129.95 949.26 125.94 951.12 123.36Z" fill="white"/>
<path d="M723.5 187.14L722.96 192.62L719.62 190.46L719.11 188.79C720.28 187.08 721.47 186.87 723.5 187.13V187.14Z" fill="white"/>
<path d="M723.5 149.75L722.96 155.23L719.62 153.07L719.11 151.4C720.28 149.69 721.47 149.48 723.5 149.74V149.75Z" fill="white"/>
<path d="M923.62 227.81C922.31 226.87 922.5 222.38 926.36 223.43C930.21 224.48 926.2 229.67 923.62 227.81Z" fill="white"/>
<path d="M723.5 168.45L722.96 173.93L719.62 171.77L719.11 170.1C720.28 168.39 721.47 168.18 723.5 168.44V168.45Z" fill="white"/>
<path d="M1007.2 82.68C1008.62 81.46 1013.96 86.01 1008.84 88.15C1006.89 87.35 1005.75 83.93 1007.2 82.68Z" fill="white"/>
<path d="M908.22 227.81H904.94C903.29 220.88 910.73 222.18 908.22 227.81Z" fill="white"/>
<path d="M964.3 1.32C964.99 1.86 965.53 5.07 963.75 5.7C958.42 7.6 961.84 -0.63 964.3 1.32Z" fill="white"/>
<path d="M886.25 223.42C889.09 220.58 892.15 227.78 887.89 227.79C886.75 227.79 885.57 224.1 886.25 223.42Z" fill="white"/>
<path d="M945.61 1.32V5.71H942.32C942.06 3.68 942.25 2.48 943.98 1.33H945.61V1.32Z" fill="white"/>
<path d="M1356.83 224.52V227.81C1351.33 228.22 1351.33 224.11 1356.83 224.52Z" fill="white"/>
<path d="M926.92 5.7H923.63C923.22 0.2 927.33 0.2 926.92 5.7Z" fill="white"/>
<path d="M870.84 223.42C872.29 224.86 868.92 229.94 867.56 226.15C866.39 222.91 870.01 222.59 870.84 223.42Z" fill="white"/>
<path d="M852.15 223.42C853.6 224.86 850.23 229.94 848.87 226.15C847.7 222.91 851.32 222.59 852.15 223.42Z" fill="white"/>
<path d="M1356.83 1.32C1358.57 3.06 1355.29 6.35 1353.54 4.61C1351.79 2.87 1355.08 -0.42 1356.83 1.32Z" fill="white"/>
<path d="M908.22 5.7C906.27 7.79 903.3 1.3 906.58 1.33C907.71 1.34 908.9 4.97 908.22 5.7Z" fill="white"/>
<path d="M1365.63 66.19C1367.37 67.93 1364.09 71.22 1362.34 69.48C1360.59 67.74 1363.88 64.45 1365.63 66.19Z" fill="white"/>
<path d="M1365.63 10.11V13.4H1362.34C1361.98 11.4 1363.55 9.76 1365.63 10.11Z" fill="white"/>
<path d="M889.53 2.42C889.51 6.45 886.26 6.45 886.24 2.42H889.53Z" fill="white"/>
<path d="M1353.55 154.14V150.85C1357.58 150.87 1357.58 154.12 1353.55 154.14Z" fill="white"/>
<path d="M831.27 227.81L830.19 225.06L831.81 223.44L833.46 226.15L831.27 227.81Z" fill="white"/>
<path d="M1365.63 215.73C1365.61 219.76 1362.36 219.76 1362.34 215.73H1365.63Z" fill="white"/>
</g>
<defs>
<clipPath id="clip0_22355_13">
<rect width="1366.12" height="229.09" fill="white"/>
</clipPath>
</defs>
</svg>
