<svg width="1364" height="549" viewBox="0 0 1364 549" fill="none" xmlns="http://www.w3.org/2000/svg">
<g clip-path="url(#clip0_22600_212)">
<path d="M1098.36 97.1042L1098.89 98.6131C1108.38 96.0265 1119.15 100.661 1128.64 100.337C1133.27 100.23 1136.94 96.3498 1142.11 99.583C1143.19 100.337 1138.23 100.661 1141.14 101.954C1142.11 102.385 1152.56 103.247 1150.41 106.157L1140.17 110.36L1142.97 110.792C1144.26 111.654 1129.72 117.15 1128.42 118.012C1122.82 121.569 1118.72 126.958 1110.32 125.88C1107.73 129.113 1092.86 133.208 1091.57 134.933C1090.27 136.657 1090.6 141.83 1089.73 144.201C1088.87 146.896 1085.75 149.051 1084.89 151.422C1082.08 158.428 1083.16 170.39 1079.5 179.443C1077.99 183.323 1074.97 186.125 1073.68 189.359C1070.88 196.58 1069.37 205.956 1067 213.284C1064.41 221.368 1055.68 233.115 1065.7 239.581C1071.52 243.353 1086.5 247.449 1093.4 248.095C1098.36 248.527 1101.37 246.694 1106.22 249.173C1123.14 257.795 1135.64 255.424 1153.64 257.472C1157.52 257.903 1160.64 260.813 1164.31 257.795C1168.62 254.346 1166.57 248.85 1167.33 244.108C1169.37 231.929 1174.87 215.655 1177.67 202.507C1178.97 196.364 1180.69 197.118 1181.01 189.143C1181.01 188.604 1182.63 188.712 1182.84 187.958C1185.75 174.594 1185.75 166.618 1183.6 153.147C1183.06 149.913 1183.06 147.219 1182.63 144.848C1182.09 141.292 1177.56 136.442 1179.07 132.993C1177.13 134.502 1169.7 130.945 1169.05 129.975C1168.51 129.221 1169.05 127.712 1168.84 127.389C1168.73 127.173 1165.82 128.898 1164.42 127.173C1163.02 125.449 1164.42 121.353 1163.99 120.599C1163.34 119.198 1159.03 117.905 1161.4 116.719C1162.91 115.965 1164.74 116.504 1166.25 116.072C1179.72 111.977 1189.31 113.163 1202.57 110.684C1209.68 109.283 1214.53 105.834 1222.93 107.235C1227.78 108.097 1230.48 112.624 1235.65 111.654V107.989C1240.82 108.205 1244.92 105.618 1250.09 105.187C1255.48 104.648 1262.16 103.571 1266.79 103.247C1269.7 103.032 1272.4 104.648 1275.09 104.217C1277.03 103.894 1278.33 101.846 1280.8 101.523C1285.55 100.769 1290.07 103.14 1294.71 103.355C1304.3 103.678 1315.72 98.182 1326.28 99.1519C1327.9 99.2597 1331.24 101.846 1334.15 100.553L1330.48 99.583C1330.27 96.5654 1333.18 96.6731 1335.55 96.7809L1336.09 99.4753H1341.58L1339.75 98.182L1341.26 95.811C1344.6 97.5353 1348.7 95.8109 1351.07 96.0265C1352.25 96.242 1353.44 97.5353 1355.06 97.6431C1358.29 97.8587 1360.44 95.5954 1363.78 100.014C1364.32 102.062 1354.62 106.265 1353.76 107.774C1343.52 113.27 1332.21 116.827 1321.76 122C1317.55 124.048 1313.57 126.742 1309.69 128.574C1304.62 130.945 1289.32 136.765 1286.95 141.076C1284.9 144.848 1285.33 152.5 1281.24 153.47V155.194L1282.96 156.488C1281.24 161.769 1278.86 168.235 1277.68 173.516C1274.34 188.604 1272.61 204.663 1268.2 219.751C1267.01 223.631 1263.45 228.373 1262.81 232.037C1261.84 237.641 1262.81 245.401 1261.51 251.113C1259.68 259.412 1254.51 269.327 1252.68 278.488C1246.97 308.449 1240.18 337.871 1231.66 367.078C1229.94 373.005 1230.05 373.113 1227.57 378.178C1227.03 379.364 1227.57 388.633 1227.14 391.219C1226.49 394.237 1223.26 398.332 1222.18 402.104C1219.49 411.696 1218.62 424.952 1216.9 434.867C1216.14 439.61 1212.05 445.429 1210.86 450.171C1209.79 454.375 1210.11 458.147 1209.68 461.919C1209.25 465.368 1206.98 467.307 1206.23 469.678C1204.94 474.097 1202.35 489.078 1202.24 493.604C1202.13 497.053 1207.52 503.304 1209.57 506.753C1212.05 511.064 1215.39 518.823 1218.19 522.164C1220.56 524.966 1224.66 526.152 1226.38 527.876C1227.35 528.846 1227.46 530.571 1228.21 531.541C1231.12 534.882 1234.79 536.714 1233.82 542.21L1229.18 539.408L1228.21 545.012L1224.55 543.18L1223.58 548.784L1220.35 545.982C1214.74 550.94 1211.73 544.581 1207.74 541.887C1190.6 530.247 1169.16 520.763 1150.84 508.693C1144.59 504.597 1133.7 494.251 1128.64 491.557C1126.38 490.371 1120.77 490.156 1117.43 488.323C1107.84 482.935 1099 475.39 1090.38 468.924C1081.76 462.458 1079.28 463.104 1071.09 459.44C1068.61 458.362 1058.37 450.602 1061.18 447.585L1065.81 448.555L1064.84 446.723C1066.78 446.184 1069.04 447.585 1070.77 447.369C1081.33 445.86 1091.03 442.088 1100.83 439.61C1108.81 437.562 1119.05 439.933 1124.11 431.311C1125.08 429.587 1129.28 418.27 1129.61 416.33C1130.15 413.421 1129.5 410.403 1130.04 407.493C1130.58 404.906 1133.27 401.996 1134.03 398.979C1135.1 394.668 1133.49 392.297 1133.49 388.74C1133.49 382.058 1141.14 374.514 1141.03 366.97L1145.56 367.832C1146.2 364.922 1142.54 365.138 1140.92 366C1142.11 358.779 1143.29 350.696 1144.91 343.583C1147.28 333.345 1148.14 330.111 1149.44 319.226C1149.87 315.885 1152.13 311.682 1152.13 308.88C1152.13 306.617 1149.33 301.012 1147.39 299.611C1146.74 299.072 1132.63 293.145 1131.66 293.037C1128.64 292.39 1126.7 293.792 1123.79 293.576C1118.72 293.145 1111.93 288.295 1107.84 288.08C1104.82 287.864 1102.45 289.588 1098.89 288.834C1096.52 288.295 1094.05 285.493 1091.03 284.631C1084.67 282.691 1075.94 282.583 1069.26 281.398C1066.89 280.966 1064.84 279.242 1062.47 278.919C1057.73 278.164 1049.97 279.134 1045.98 281.829C1042.75 283.984 1041.46 295.947 1040.27 300.258C1039.62 302.629 1037.47 305.862 1037.25 307.371C1037.14 308.988 1038.33 310.712 1037.9 312.652C1037.79 313.299 1035.2 317.502 1034.67 321.489C1031.97 342.505 1024.97 361.905 1019.58 381.735C1017.64 388.74 1017.85 399.41 1016.35 407.277C1015.38 412.019 1014.19 417.193 1013.22 421.719C1011.6 429.156 1004.71 443.382 1009.66 449.633C1011.5 451.896 1016.35 453.512 1017.53 456.638C1017.75 457.5 1009.23 458.362 1010.1 461.703C1013.87 463.428 1017.21 458.47 1019.04 458.147C1021.63 457.716 1029.39 467.2 1031.86 469.14C1037.14 473.343 1048.57 475.822 1046.2 484.336C1045.98 485.306 1043.07 484.336 1045.33 487.784C1041.35 486.922 1040.16 490.91 1036.5 491.449C1027.23 492.958 1016.88 490.91 1008.69 491.449C1005.35 491.664 1004.17 494.143 1001.26 494.359C998.672 494.574 996.409 493.173 993.93 493.389C988.757 493.712 977.981 504.705 975.287 495.221C972.054 498.562 964.725 499.747 960.307 499.747C944.465 500.071 929.163 499.747 913.429 502.873C905.131 504.597 890.905 512.572 886.595 501.687C880.775 502.873 868.921 509.986 863.641 507.507C862.132 506.753 861.916 505.136 861.377 504.705C860.084 503.951 855.989 503.627 854.265 502.549C853.51 499.208 857.821 500.717 858.899 500.178C860.084 499.532 860.3 497.7 861.377 496.945C865.473 494.143 870.538 491.988 874.848 489.401C885.948 482.611 898.018 474.421 910.734 467.739C913.752 466.122 924.852 462.026 926.145 460.841C928.624 458.686 927.007 454.051 927.438 451.034C927.977 447.369 929.378 438.855 933.904 439.394L932.072 437.993C931.318 435.514 933.581 435.73 933.689 435.514C936.275 426.784 934.228 422.258 934.982 414.929C935.413 411.157 938.646 407.816 939.077 405.23C939.4 403.398 938.43 400.811 938.754 398.224C939.185 394.237 942.31 384.86 943.388 379.687C948.237 357.594 955.673 333.883 959.122 311.898C961.061 299.827 965.588 290.451 968.066 279.134C969.467 272.883 968.713 264.8 970.329 258.226C971.191 254.885 973.67 252.622 974.532 250.359C976.688 244.216 976.58 233.007 977.981 226.002C979.382 218.996 983.908 210.806 984.77 204.986C985.524 200.567 984.339 194.855 985.201 189.682C986.279 183.431 989.943 177.288 991.236 171.576C992.853 164.355 991.667 155.41 995.223 148.081L996.193 150.883L998.025 149.482V147.219L996.193 146.249C1000.4 146.249 998.349 138.058 997.379 135.364C996.948 134.071 989.081 119.306 988.434 118.336C986.71 115.857 980.567 113.055 977.657 110.468C973.67 107.019 971.515 102.385 966.989 99.7986L966.126 101.739C962.678 101.954 958.259 95.1643 956.32 93.871C953.949 92.2544 948.776 92.1466 948.022 87.8357C950.393 87.6201 952.548 86.758 955.027 86.8657C970.329 87.189 988.003 88.5901 1002.44 91.5C1007.72 92.5777 1012.36 90.8534 1016.88 91.1767C1022.06 91.6078 1028.85 94.3021 1034.99 94.3021C1040.05 94.3021 1044.9 92.3622 1050.62 92.47C1065.7 92.7933 1083.05 98.2897 1098.25 97.4276L1098.36 97.1042ZM975.933 261.244C976.472 264.046 972.485 267.387 975.502 269.542L979.489 263.507L975.933 261.244ZM1021.52 326.986C1020.87 326.339 1022.27 323.968 1020.55 324.292C1020.44 325.693 1020.55 328.279 1019.69 329.357C1018.82 330.542 1016.56 329.034 1016.78 330.866C1018.61 330.758 1019.9 330.65 1019.58 332.698C1020.98 333.021 1020.66 330.758 1021.84 329.788C1022.81 328.926 1024.1 330.111 1025.18 329.465C1028.42 327.525 1021.73 327.201 1021.52 326.986ZM1006.43 467.415H1002.87L1004.28 472.804C1008.26 473.127 1007.94 470.002 1006.43 467.415Z" fill="white"/>
<path d="M488.398 0.646628C488.398 0.646628 488.613 2.26324 489.152 2.26324C490.23 2.26324 492.385 0.538854 494.648 0.323307C498.635 -0.107789 508.442 -0.215563 512.214 0.323307C516.74 0.96995 522.236 5.60423 526.655 5.38868L525.254 2.15546L527.193 0.323307C528.487 0.323307 533.983 22.6325 534.629 25.3268C535.599 29.4222 535.491 35.4576 537 40.6307C537.755 43.4328 542.496 53.0247 542.604 53.7791C542.82 55.288 541.526 56.7968 541.957 59.7067C543.358 67.3586 552.842 82.447 554.674 90.6378C556.075 96.4576 554.889 101.631 555.752 107.235C556.937 115.749 563.08 126.095 565.235 134.825C566.959 141.507 566.744 148.081 567.929 154.332C568.791 158.643 576.012 182.03 577.628 185.479C578.814 187.958 581.616 189.574 582.154 191.191C583.016 194.208 581.723 197.226 581.939 199.92C582.37 205.525 588.297 212.638 590.021 218.565C591.099 222.014 589.375 227.726 589.698 231.822C590.345 238.18 592.823 251.329 595.086 257.041C596.38 260.382 599.505 262.86 600.475 266.525C605.432 284.631 608.557 304.677 613.407 323.214C615.131 330.111 619.98 337.117 621.489 343.906C622.89 350.373 622.782 358.887 624.291 365.138C625.369 369.557 629.787 375.7 630.541 380.226C631.188 384.537 630.003 389.064 630.973 393.698C632.158 399.625 637.439 407.816 639.163 414.283C641.103 421.396 641.318 429.263 644.012 436.376C645.305 439.825 648.215 442.304 648.862 446.399C649.939 452.542 648.862 459.655 650.263 466.337C650.694 468.17 652.634 470.972 652.634 471.187C652.634 472.049 650.478 473.019 650.047 473.882C648.538 476.684 646.491 479.594 645.305 482.072C643.581 485.413 644.12 490.263 642.611 492.419C640.779 495.221 636.038 493.173 637.115 497.592L644.551 495.76V499.316L648.215 500.394C647.892 495.329 645.629 492.634 647.569 487.138C648.323 485.09 650.694 484.336 651.448 482.719C652.203 481.21 653.065 474.097 653.819 473.451L659.315 479.917L656.082 469.678C662.333 474.528 668.583 485.845 675.588 489.186C685.395 493.928 680.545 491.772 687.334 497.915C691.106 501.364 705.439 511.279 710.181 514.081C713.522 516.021 716.755 517.099 720.526 518.069V523.458L726.13 524.535L725.268 531.864C724.083 533.049 715.893 527.445 713.522 527.445C712.013 527.445 711.474 529.277 709.534 528.739C706.625 527.876 703.176 524.535 701.452 523.458C696.171 520.332 678.066 522.38 671.277 521.41C666.212 520.656 662.979 517.53 658.669 516.345C651.771 514.405 645.737 516.129 639.486 515.051C636.684 514.62 634.421 512.249 631.835 511.603C628.817 510.848 619.118 508.908 616.209 508.693C610.82 508.154 608.018 513.327 602.845 506.322L605.647 504.921C599.72 504.921 592.392 505.567 586.681 504.921C579.783 504.058 563.403 500.071 557.153 497.376C549.717 494.251 549.178 488.323 547.992 487.569C546.807 486.815 542.712 487.892 541.203 485.521C540.018 488.97 539.371 489.509 535.707 490.155L534.198 485.629H521.374C521.59 475.714 526.655 478.193 533.444 475.714C546.053 471.08 559.416 463.966 570.623 457.284C573.102 455.776 577.736 455.883 577.844 450.71C578.059 442.519 574.826 430.125 571.917 422.366C567.283 409.972 562.541 401.35 560.493 387.447C560.062 384.214 560.709 381.088 559.954 377.747C558.661 372.251 552.95 363.09 551.441 356.516C549.932 349.403 550.255 336.578 547.561 330.758C542.281 319.765 538.186 303.168 534.845 290.558C530.642 274.823 527.732 257.364 523.206 242.06C522.991 241.306 521.697 241.413 521.59 240.875C521.59 240.228 522.452 239.258 522.021 237.641C520.512 232.253 511.891 225.355 506.61 224.17C501.329 222.984 498.635 224.601 494.109 224.708C474.496 225.032 455.421 220.721 436.239 226.217C429.234 228.265 427.294 237.102 424.923 243.677C421.582 252.837 419.427 262.429 416.625 271.59C415.116 276.655 409.944 281.613 408.65 286.786C407.249 292.283 408.004 299.611 406.495 305.862C406.064 307.479 404.555 307.263 404.555 307.694C404.124 319.549 420.397 335.5 429.018 343.044C430.204 344.014 439.687 348.864 436.131 351.343C435.484 351.774 433.975 351.019 433.329 351.343C430.635 352.852 424.923 357.701 422.121 358.564C410.59 362.12 401.107 359.102 390.222 359.641C385.481 359.965 382.463 362.336 378.152 362.875C373.842 363.413 351.426 360.935 349.81 361.905L349.379 364.707L347.547 362.12C340.111 365.03 332.244 364.06 324.7 361.905L324.269 360.072C321.467 361.581 311.876 369.988 308.966 367.401C308.428 366.97 310.044 364.06 307.565 364.707C306.272 367.617 304.44 368.263 301.207 367.509C300.13 367.186 301.207 365.246 299.698 365.677L299.16 368.479C297.112 368.155 294.633 368.802 292.694 368.479C289.999 367.94 290.431 364.707 288.06 364.707C283.21 367.078 280.516 371.281 274.589 368.479C275.235 365.03 281.701 364.815 282.779 363.737C282.887 363.629 282.025 360.504 283.102 359.426C283.641 358.887 289.245 357.486 290.107 357.055C292.909 355.223 295.603 351.774 299.806 348.972C302.824 346.924 301.53 345.739 301.746 345.523C303.255 343.691 310.367 340.027 311.445 338.625C313.061 336.578 312.199 333.129 312.738 332.482C312.846 332.267 315.863 331.943 317.264 330.974C328.041 323.537 337.093 305.862 340.003 293.36H342.374C342.697 291.313 340.326 291.205 340.865 288.834C341.512 286.247 344.529 283.876 345.607 281.398C347.223 277.841 347.116 273.53 348.409 270.297C352.612 259.843 360.586 247.664 365.005 235.809C370.178 222.014 374.273 211.883 380.416 198.304C382.248 194.101 385.912 179.982 387.744 177.827C388.821 176.534 391.192 176.102 391.947 174.594C393.024 172.438 393.132 167.588 394.102 164.678C396.688 157.242 402.939 149.59 406.279 142.477C410.913 132.454 414.685 121.784 419.535 111.223C425.031 99.2597 427.725 88.159 432.359 76.6272C436.454 66.3887 446.045 52.1625 451.11 40.6307C453.373 35.3498 455.421 28.7756 457.469 23.2791L459.301 24.2491C459.301 24.2491 458.654 22.3092 458.87 21.3392C459.301 19.5071 463.288 10.1307 464.366 8.40635C466.09 5.38868 470.293 4.31094 468.568 0.107759C472.879 1.50882 485.919 -1.2933 488.721 0.431081L488.398 0.646628ZM451.757 174.594C453.481 176.426 464.797 179.228 467.706 179.551C473.095 179.982 485.488 179.336 490.876 178.473C492.277 178.258 494.54 177.504 494.971 176.102C493.139 169.636 493.57 161.23 492.062 155.087C491.631 153.254 489.798 152.177 489.475 150.237C488.613 145.71 490.445 138.92 489.26 133.747C488.505 130.406 484.518 128.682 483.117 125.988C481.285 122.754 481.824 115.534 478.591 114.671C472.233 113.809 472.771 121.784 471.155 125.449C470.185 127.604 466.736 134.717 465.551 136.549C463.18 140.322 460.27 139.567 459.085 144.956C457.9 150.345 456.391 152.392 453.589 157.889C453.05 158.966 451.865 158.859 451.541 159.721C450.464 162.739 449.386 172.007 451.757 174.594ZM480.315 211.129L474.819 212.53L479.022 216.733L482.255 214.362L479.453 213.931L480.423 211.129H480.315ZM417.918 227.618C418.996 223.2 422.444 215.44 415.224 215.655L414.254 227.726H417.811L417.918 227.618Z" fill="white"/>
<path d="M244.414 47.7438L245.061 50.4381C236.116 55.3957 227.495 61.3233 219.197 67.2509C211.977 72.424 204.756 77.9205 197.859 82.9859C189.992 88.6979 182.125 94.5177 174.043 100.014C172.75 101.415 171.672 105.511 171.672 107.343C171.672 112.516 178.677 146.465 180.724 151.961C180.94 152.608 183.311 152.931 183.311 155.733C183.203 160.367 180.401 154.655 178.677 157.565L181.371 159.074L180.617 162.307C182.018 163.062 182.88 162.307 182.449 164.571L178.785 167.373L180.078 165.541C182.772 166.618 183.419 165.972 183.85 169.205L186.113 163.601C188.484 172.761 187.406 181.276 191.717 190.005L189.777 191.406L192.579 192.807L190.747 194.208L192.579 194.855C191.393 204.124 198.183 211.56 198.075 220.29L196.243 219.32V221.691C198.937 222.23 196.997 223.846 197.967 226.325C198.721 228.373 201.739 229.882 200.446 231.39L197.644 229.558C195.381 230.959 196.997 232.145 197.213 234.193L193.549 235.594C195.273 238.288 195.92 235.055 197.752 235.055C199.368 235.055 200.015 237.426 201.954 236.995L202.386 232.36C204.433 236.564 206.696 247.772 206.588 252.406C206.588 254.777 204.325 255.963 204.649 258.334L208.313 257.364C211.869 269.111 214.779 280.32 212.085 292.606L215.749 289.804C217.042 296.917 221.029 303.276 222.753 310.173C226.094 323.968 227.064 340.458 231.051 353.822C232.129 357.594 235.254 360.504 236.009 364.707C236.548 367.724 235.901 370.634 236.44 373.544C236.979 376.454 239.78 379.472 240.427 383.459C240.966 386.477 240.427 389.387 241.074 392.081C242.044 396.716 246.354 409.648 245.492 413.421C245.169 414.714 239.888 415.037 242.69 419.671L245.492 418.701C246.678 427.862 254.976 433.898 253.898 443.813C274.481 441.981 295.065 439.933 315.648 438.208C330.304 437.023 344.637 435.945 359.293 434.436C371.148 433.251 382.894 432.281 394.533 430.772C398.089 430.341 403.909 431.311 407.25 429.802C408.004 429.479 416.625 419.025 417.595 417.624C423.307 409.217 427.941 397.686 433.221 388.633C437.855 380.549 445.076 373.544 447.446 363.845L456.283 361.042L457.253 364.707V358.24L463.719 356.408C462.857 360.827 464.042 365.246 463.719 369.88C463.288 376.023 461.025 382.813 460.486 388.417C460.163 390.788 461.456 394.452 460.917 397.686C460.702 399.194 459.085 400.057 459.085 401.458C459.085 401.996 460.809 401.781 461.025 402.535C462.21 406.846 459.085 406.739 459.085 407.062C459.085 408.355 460.702 409.217 460.917 410.834C462.749 421.827 457.469 440.795 457.145 452.542C457.038 458.254 459.516 461.919 458.87 467.307L451.542 471.511L452.296 468.816L450.679 467.415L452.512 464.074L445.076 467.739C447.446 464.505 443.459 466.769 443.136 465.367L442.705 461.272C437.963 464.074 432.79 470.11 440.765 472.481L444.537 467.846L448.74 473.343C443.782 473.666 438.394 472.912 433.437 473.343C426.001 473.989 417.056 476.792 410.159 477.977C405.094 478.839 400.784 476.899 396.257 477.007C391.731 477.115 388.714 479.055 383.218 478.947C372.441 478.731 367.376 480.887 357.246 481.534C343.991 482.288 331.921 484.012 318.234 483.474C314.247 483.366 312.738 486.276 310.906 481.965L307.673 482.827L307.458 486.276C301.962 488.216 296.035 486.815 290.431 487.353C286.012 487.677 276.529 492.419 275.128 486.383H273.727C272.973 486.491 273.619 488 272.649 488.216C267.8 489.401 258.101 491.449 253.251 491.88C241.936 492.742 229.219 492.203 218.227 492.958C205.403 493.712 190.962 497.161 178.138 498.454C169.84 499.316 160.464 498.454 152.274 499.424C148.933 499.747 146.024 501.903 142.575 501.256L144.407 499.424C139.665 498.131 135.786 500.825 131.906 501.256C128.027 501.687 125.009 500.178 121.668 500.286C116.065 500.286 108.413 502.334 103.025 502.226C100.87 502.226 99.0375 501.795 96.9899 501.256C99.6841 496.945 95.9123 496.406 99.7919 491.449C106.366 483.042 115.526 477.546 122.638 468.385C124.255 466.337 124.901 465.26 126.087 463.535C129.751 458.47 133.846 453.728 138.696 451.896C137.187 446.399 144.299 445.214 145.162 439.394C145.485 437.239 144.299 424.845 143.545 422.474C142.252 418.27 139.019 416.223 137.941 412.343C134.169 398.548 131.367 383.783 128.566 369.664C124.47 349.942 119.836 326.447 114.125 307.048C112.832 302.521 107.767 293.576 107.228 289.696C106.689 285.062 110.137 281.613 107.874 275.362C102.702 260.813 96.5589 245.401 94.188 229.558C93.6492 226.002 94.5113 222.337 93.8647 218.781C93.1103 214.254 89.554 211.668 88.3686 207.572C85.6744 198.196 85.4589 187.527 82.4415 178.15C81.5793 175.456 79.6395 172.977 78.6696 169.852C76.191 160.799 76.0832 145.279 71.8803 136.657C71.3415 135.579 64.2289 126.419 63.259 125.772C61.427 124.479 57.3319 122.754 55.1765 122.647C50.8659 122.323 45.8009 125.88 47.5251 117.905C41.2747 115.857 36.3174 111.115 30.2825 108.636C22.5233 105.511 12.2855 106.157 3.77195 104.541C3.23311 104.541 -1.50861 103.894 0.215653 102.062C2.15545 100.014 19.8291 97.5353 23.8165 96.4576C32.0068 94.0866 40.5203 88.5901 49.2494 87.4046C53.56 86.8657 54.2066 87.4046 59.2717 86.3268C74.5745 82.8781 91.6016 75.9806 107.767 73.5018C111.754 72.8551 117.466 73.7173 120.267 73.0707C123.285 72.3162 128.997 67.1431 132.337 65.6343C138.049 63.2632 139.558 65.3109 144.515 64.8798C147.101 64.6643 149.688 62.8321 152.274 62.401C155.507 61.7544 159.818 62.401 162.943 61.2155C163.805 60.8922 163.59 59.2756 164.128 59.3834C164.883 59.5989 165.637 61 167.685 61C172.426 61 181.479 57.0124 186.652 55.9346C191.07 55.0724 196.674 55.1802 200.769 54.318C215.21 51.3003 229.327 45.0495 244.307 47.4205L244.414 47.7438ZM209.283 276.979L207.451 269.542L206.481 272.345C206.481 272.345 202.817 269.004 201.847 271.913C200.985 274.5 202.062 273.746 203.14 274.284C204.11 274.823 208.744 277.518 209.175 276.979H209.283ZM220.383 320.627L221.783 315.993L219.736 314.376C213.054 315.67 218.443 317.178 218.443 317.61C218.766 319.226 217.796 322.028 219.305 323.106L222.43 322.567L223.077 319.765L220.275 320.735L220.383 320.627ZM181.371 486.814C178.461 486.814 174.582 484.228 175.013 488.97L180.401 493.281L181.371 486.814Z" fill="white"/>
<path d="M908.148 58.8445C908.687 62.0778 906.101 64.0177 905.562 66.9276C901.898 85.2491 893.707 137.951 896.617 154.548C896.94 156.38 898.88 157.781 898.88 160.475C898.88 164.247 895.755 167.481 895.216 170.714C894.785 173.731 895.432 177.288 895.216 180.413L892.414 178.581C891.875 182.138 885.409 184.509 882.176 184.724C881.53 184.724 874.417 184.078 873.555 183.97C867.52 182.892 870.969 177.935 868.275 175.456C866.011 173.408 864.718 176.857 865.904 169.313L864.072 170.283C860.515 168.127 860.623 159.182 859.007 155.41L856.205 156.38C858.36 151.315 852.433 148.405 849.847 144.633C847.045 140.537 843.919 132.777 841.333 129.975C839.932 128.359 818.271 117.581 816.116 117.15C811.589 116.288 804.046 118.982 798.119 118.443C794.886 118.12 792.623 116.827 789.821 116.504C787.019 116.18 777.858 116.18 776.889 119.306L775.919 117.474C773.225 118.443 764.28 128.466 763.633 131.161C763.202 132.67 762.556 146.141 762.879 148.081C764.064 155.518 772.47 164.355 778.29 168.882C791.006 178.797 796.071 181.491 811.374 186.88C825.384 191.73 835.514 197.226 847.799 204.447C848.984 205.201 848.984 208.004 853.403 206.603L852.433 208.435C858.145 207.896 860.515 211.129 864.826 213.284C874.848 218.242 887.565 226.541 896.509 233.546C898.018 234.731 908.579 243.785 909.118 244.431C910.735 246.587 911.273 250.682 912.998 253.376C915.907 257.903 920.11 257.256 916.554 263.615L919.787 266.094L921.188 264.262L927.654 279.565C922.481 281.505 920.541 286.894 922.158 292.067C926.037 292.606 924.313 287.541 925.067 286.678C925.283 286.463 928.732 285.709 929.594 284.631C930.456 288.618 930.133 292.822 930.995 296.701C931.857 300.905 934.982 304.784 935.305 308.233C935.736 313.514 931.318 315.454 932.503 320.735C929.163 319.011 929.594 322.783 929.701 325.369L932.503 322.567L933.473 327.201C928.839 326.124 930.025 331.728 933.473 330.004L931.534 339.164H927.977C930.779 343.368 931.318 342.829 929.809 348.11C928.3 352.959 920.003 372.898 917.308 376.454C915.8 378.394 912.351 379.903 910.411 382.489C907.717 385.938 905.777 392.081 902.544 394.991C899.311 397.901 892.199 400.488 888.211 403.829C885.086 406.415 882.931 410.726 880.129 412.451C877.111 414.391 874.094 413.528 871.292 414.714C852.325 422.366 835.514 428.509 814.391 428.509C808.356 428.509 801.89 425.276 795.856 425.599C792.299 425.707 789.066 428.078 785.726 427.539C783.893 427.216 779.798 424.198 776.889 423.336C771.824 421.719 765.573 421.827 760.831 420.857C755.659 419.779 728.178 408.894 723.652 406.092C719.126 403.29 714.6 395.315 708.565 394.237C694.016 391.542 695.094 407.277 683.994 408.678C680.653 409.11 677.42 407.493 674.187 407.385C668.799 407.17 664.704 409.864 658.884 405.769C650.155 399.626 654.035 392.405 654.25 384.429C654.681 369.233 653.604 352.959 654.25 337.979C654.574 330.974 658.884 321.921 658.884 318.472C658.884 298.534 655.436 278.057 655.113 258.118C655.113 252.083 655.22 246.048 655.113 240.012L667.29 258.873C682.809 279.565 707.703 347.032 729.687 357.594C736.261 360.719 739.925 357.701 742.296 358.564C751.025 361.689 756.305 369.88 765.789 373.868C772.686 376.777 790.252 380.118 797.58 380.226C802.645 380.226 809.865 377.963 815.254 377.424C819.456 377.101 828.293 378.394 831.418 376.885C832.065 376.562 841.656 369.557 842.087 369.018C843.381 367.293 849.631 354.792 849.954 352.744C851.14 343.906 848.984 328.603 843.057 321.705C842.303 320.735 840.686 320.951 840.148 320.519C838.747 319.118 837.992 316.64 835.19 316.209L834.22 318.041C834.22 316.963 834.005 315.67 833.358 314.7C829.694 310.173 811.697 305 805.447 301.767C802.214 300.15 798.981 296.163 796.933 295.085C793.054 293.037 785.941 291.744 782.6 290.343C779.906 289.157 777.643 287.325 774.949 286.247L775.811 282.691C773.979 282.26 773.548 284.415 771.824 284.415C763.202 284.2 760.293 278.811 754.797 275.47C751.995 273.746 747.684 273.207 744.882 271.482C739.17 267.926 731.088 259.196 724.191 255.101C721.712 253.592 718.156 253.269 716.001 251.221C713.845 249.173 712.875 244.97 710.936 242.383C708.134 238.827 703.284 236.887 700.913 233.007C691.538 217.703 685.503 198.304 682.485 180.952C680.653 170.39 686.473 160.906 686.904 152.392C687.119 147.542 684.964 142.585 686.149 136.873C686.688 134.394 699.405 109.067 701.344 106.588C703.176 104.325 707.056 100.984 709.319 99.3675C709.75 99.0442 711.367 99.7986 713.306 98.182C715.354 96.3498 715.354 94.1944 716.539 93.0089C720.203 89.129 741.218 75.4417 745.744 75.765L746.606 77.5972C751.563 77.8127 756.197 72.2085 759.862 71.3463C773.979 68.2209 786.049 67.1431 800.489 68.5442C809.65 69.4064 827.323 71.023 835.621 73.2862C839.932 74.4718 853.511 82.447 855.343 82.447C857.39 82.447 858.468 80.7226 859.977 80.5071C870.107 79.106 873.555 78.8905 882.931 73.8251C886.164 72.1007 906.747 57.0124 908.579 59.1679L908.148 58.8445ZM925.822 317.825V312.221C918.063 313.514 924.529 317.825 926.253 322.459C928.408 319.334 931.641 317.286 931.318 313.191H927.654C928.947 315.454 929.055 317.825 925.822 317.825Z" fill="white"/>
</g>
<defs>
<clipPath id="clip0_22600_212">
<rect width="1364" height="549" fill="white"/>
</clipPath>
</defs>
</svg>
