<svg width="1473" height="519" viewBox="0 0 1473 519" fill="none" xmlns="http://www.w3.org/2000/svg">
<g clip-path="url(#clip0_22600_232)">
<path d="M428.642 187.997C428.642 187.997 430.786 188.375 431.291 189.636C431.796 191.275 430.282 193.923 430.408 196.067C430.408 199.471 433.94 207.667 437.724 208.549C443.401 207.919 449.961 209.684 455.259 209.684C482.506 209.81 511.519 205.902 538.515 208.802C546.083 209.558 545.579 215.106 548.48 220.528L546.588 221.41C550.498 222.545 547.471 228.219 547.471 231.75C547.471 244.989 547.471 258.732 547.471 271.972C547.471 278.024 551.381 281.933 546.966 288.237C542.173 295.172 525.774 288.615 518.962 292.02C506.852 290.885 494.994 291.894 482.884 292.902L485.66 289.624C483.768 287.354 482.128 290.759 481.497 287.228C480.362 289.876 479.352 290.381 476.325 290.002L477.208 292.776C474.054 294.163 473.171 290.885 472.919 290.885C470.396 290.885 464.341 292.524 460.935 292.398C458.538 292.398 455.763 290.885 453.24 290.885C445.545 290.885 439.238 293.785 431.543 293.028C427.128 292.524 428.894 295.676 428.39 297.694C428.264 298.324 425.488 299.585 425.615 301.224L431.165 300.341C431.165 302.737 432.679 308.033 430.03 309.546C428.137 310.555 425.362 308.159 424.605 312.572L431.165 311.689L432.174 362.251C420.569 365.781 432.174 369.564 432.174 370.32C432.552 373.094 430.03 380.155 430.282 383.307C432.174 412.055 431.039 442.569 431.796 471.443C431.796 475.982 431.796 494.139 430.786 497.921C429.777 501.704 427.633 506.117 423.218 506.369C416.784 506.747 408.206 505.487 401.899 505.739C396.979 505.865 391.934 508.134 385.753 507.378C383.986 507.126 384.491 505.487 383.86 505.361C376.796 504.982 364.686 509.269 356.739 506.243C352.072 506.747 340.466 507.252 336.304 506.117C335.547 505.865 333.402 503.974 333.781 503.469L337.565 501.074C336.051 498.047 333.15 500.569 332.141 498.047L330.879 492.752L332.771 492.121L330.879 490.608C331.258 485.817 328.735 481.782 330.879 477.243L333.654 479.134L335.294 475.856C329.492 470.812 331.258 461.104 330.879 453.917L335.042 456.691L334.537 452.908L338.322 454.295L337.817 451.017L332.393 451.899C329.113 450.891 331.888 445.973 331.888 443.956C331.636 437.525 329.87 431.347 331.888 424.412L334.79 423.782C329.87 420.882 332.519 415.712 332.015 410.668C342.737 413.695 338.07 402.725 331.005 403.229C332.898 399.194 330.879 395.79 331.005 392.512C331.005 390.368 331.636 383.055 332.015 381.416C332.267 380.533 333.781 381.164 333.907 380.281V378.894C325.203 374.986 335.294 364.646 331.132 357.711L332.898 356.829L331.005 356.325C332.771 350.398 328.23 341.194 333.781 337.159L331.888 336.024C331.762 330.603 330.627 325.685 330.879 320.263C331.132 314.842 333.402 309.42 333.654 303.998L330.879 303.494V298.954L333.781 297.946L331.005 297.441C330.375 294.037 331.888 290.885 332.015 287.607C332.393 274.746 332.267 261.254 332.015 248.267C332.015 243.098 329.239 239.315 333.907 234.776H331.132V225.823C333.654 226.076 334.664 230.363 335.799 225.823L331.132 222.041C333.024 219.519 329.87 208.171 334.916 209.432L336.808 211.323L335.799 209.432C340.34 210.441 339.331 207.793 341.475 204.767L338.7 205.649V202.875L336.43 203.884L335.547 201.993L332.267 202.875L334.285 197.454L339.836 199.219L340.592 194.932C340.214 191.906 333.024 196.193 332.267 195.436C332.519 193.293 333.402 188.501 333.15 186.61C329.996 165.806 332.141 146.892 332.267 125.836C332.267 111.083 330.753 96.2051 331.258 81.831C331.51 75.5266 332.015 75.2745 331.258 68.7179C330.501 62.1613 333.024 56.6134 333.024 50.9395C333.024 45.896 330.753 40.6003 331.258 35.0524C331.51 32.1524 333.024 30.2611 333.15 28.4958C333.402 25.4697 329.744 22.1914 330.879 18.0305C332.141 13.6175 336.43 10.2131 341.097 10.2131C354.468 10.4653 367.84 9.20438 381.337 9.33046C391.934 9.33046 402.53 10.5913 413.126 10.3392C415.649 10.3392 418.046 9.07829 420.569 9.33046C422.839 9.45655 429.777 14.2479 430.66 16.1392C431.291 17.4001 432.3 28.2437 432.3 30.3872C432.3 34.1698 430.282 39.0872 430.408 43.5003C430.534 60.7744 431.543 77.6701 431.417 94.9442C431.291 115.244 431.796 135.292 431.417 155.719C431.417 162.906 432.174 173.371 431.291 179.927C430.913 182.323 427.885 186.61 428.642 187.871V187.997ZM408.837 128.358C409.216 126.088 406.693 125.457 405.053 124.575V126.466L408.837 128.358ZM408.837 138.571C408.206 137.058 406.819 135.418 405.053 135.797C405.684 137.31 407.071 138.949 408.837 138.571ZM340.466 157.232C339.331 153.827 340.088 150.927 339.962 147.775C339.962 146.766 339.962 143.11 338.7 143.236C339.709 147.649 335.547 145.758 333.907 147.649C331.636 150.297 331.762 155.971 335.168 157.61L340.466 157.232ZM386.888 191.906C384.87 193.293 384.87 195.184 386.888 196.571L389.158 194.301L386.888 192.032V191.906ZM383.608 205.019C386.762 205.649 390.168 201.867 386.888 199.471C384.113 200.354 382.22 202.371 383.608 205.019ZM539.902 216.241C539.902 216.241 540.281 220.023 541.29 219.897C544.948 219.897 542.299 213.719 539.902 216.241ZM338.826 243.098C341.097 245.619 343.872 241.711 344.125 239.315C342.611 237.171 340.214 234.271 337.313 234.902L335.799 239.063C338.322 239.819 337.817 242.089 338.826 243.224V243.098ZM390.42 253.437C392.564 255.454 395.718 254.445 394.709 251.419C393.447 247.385 387.14 250.411 390.42 253.437ZM333.024 252.806C333.024 252.806 333.781 255.58 334.411 255.58C337.06 255.58 334.411 251.419 333.024 252.806ZM450.213 267.937L452.483 271.341L458.412 269.198L454.754 264.406C457.403 261.38 456.142 256.337 451.853 257.976C452.105 260.876 453.493 267.054 450.213 267.937ZM342.359 265.793L341.854 260.245C338.196 261.128 338.574 265.793 342.359 265.793ZM516.439 266.802H513.664C513.664 270.206 516.439 270.206 516.439 266.802ZM342.359 274.241L338.574 273.359V275.25H342.359V274.367V274.241ZM452.862 276.133H450.087C450.087 279.537 452.862 279.537 452.862 276.133ZM445.293 279.915C445.293 279.915 448.068 279.159 448.068 278.528C448.068 275.88 443.906 278.528 445.293 279.915ZM452.862 280.798L440.878 283.698V289.246L445.041 288.363L444.536 283.698C446.555 283.698 448.699 283.32 450.717 282.815C452.231 282.437 453.493 283.698 452.988 280.924L452.862 280.798ZM342.359 313.581C342.863 311.815 343.115 309.546 341.854 308.033C339.836 309.168 340.214 313.076 342.359 313.581ZM334.916 316.355H333.024C332.771 318.12 333.024 319.129 334.411 320.137L334.916 316.355ZM397.106 328.585C387.392 336.907 394.33 342.581 399.25 331.107L397.106 328.585ZM366.326 345.355L364.939 347.624L366.326 349.011L367.714 346.742L366.326 345.355ZM347.026 352.92L349.801 351.533V349.768L347.026 348.381V353.046V352.92ZM341.475 349.138L338.196 350.02C338.196 352.92 336.43 359.098 341.475 357.081V349.138ZM343.368 401.464L342.485 397.681H341.602L340.719 400.077C341.602 401.086 342.106 401.716 343.494 401.464H343.368ZM342.359 410.921V405.373H341.475V410.921H342.359ZM402.278 409.029L401.773 405.247C400.385 406.255 400.133 407.264 400.385 409.029H402.278ZM396.727 408.147L392.943 408.651L392.06 411.929L394.835 412.434L396.727 408.147ZM393.952 422.899C393.574 422.142 395.718 418.864 393.321 418.36C392.312 418.234 390.798 419.495 390.42 420.251C389.789 421.638 394.583 429.708 396.601 427.69C398.619 425.673 394.078 423.151 393.952 422.899ZM340.592 427.69C344.503 428.573 343.872 421.134 341.98 421.134C339.079 423.151 339.583 424.664 340.592 427.69ZM351.693 438.03C350.936 437.525 349.423 438.534 348.918 439.417C348.918 445.847 354.09 439.795 351.693 438.03ZM342.359 465.138V462.365L337.691 464.76L342.359 465.265V465.138ZM376.039 480.143C376.292 477.747 374.526 476.991 372.255 477.369L374.652 480.143H376.039ZM340.466 479.134C337.187 478.63 339.079 480.521 339.583 482.917H341.475L340.592 479.134H340.466Z" fill="white"/>
<path d="M912.41 424.916C914.428 425.421 916.068 423.025 917.582 423.025C918.591 423.025 919.474 424.286 920.357 424.412C922.375 424.664 924.015 423.151 926.412 425.799V416.469L918.969 421.134L916.572 417.477L912.41 419.369V414.703L915.689 416.595C919.348 412.686 915.437 411.173 911.527 412.434C914.176 406.255 911.779 402.851 911.527 397.429C911.022 388.225 911.274 374.733 911.527 365.529C911.527 361.872 913.293 357.838 912.536 353.929L915.816 355.82L917.96 354.433L916.825 349.264H913.545C914.049 346.49 911.905 343.842 911.779 341.32C911.527 333.124 911.274 321.272 911.779 313.329C911.905 310.807 914.302 301.981 914.176 301.098C914.176 300.215 912.283 299.207 912.662 298.828H914.428V297.442C907.49 292.776 912.662 283.32 912.536 276.385L916.32 275.88C914.176 270.459 909.382 278.78 912.536 268.82L916.194 269.324L918.212 265.541C918.212 263.019 914.176 263.398 912.536 263.146L916.32 258.985C915.689 257.598 913.04 257.85 912.662 257.472C910.77 255.328 913.166 229.228 913.293 224.437C913.293 221.537 910.644 216.115 914.049 213.719C915.942 212.332 919.978 212.71 921.871 211.323C926.916 207.541 922.627 197.832 916.32 198.715L917.329 190.015C908.121 186.106 912.662 180.936 912.662 173.875C912.662 170.345 911.022 166.814 911.653 163.158C919.095 164.923 912.662 161.266 912.536 160.636C911.653 156.979 912.662 146.766 912.536 142.101C912.536 137.94 909.634 134.914 914.302 131.888L911.653 130.375C911.653 130.375 912.662 128.358 912.536 127.223C911.274 114.992 912.788 103.014 912.536 90.7833C912.536 86.4963 911.148 79.4354 911.527 75.9049C911.779 73.6354 913.671 72.1223 913.545 69.2223C913.419 67.2049 911.779 66.0701 911.653 64.557C911.4 59.6396 914.302 51.1917 912.536 45.2656L915.311 46.1482C913.293 41.2307 910.391 38.9612 911.527 33.035C914.806 35.9351 918.086 34.9264 917.077 30.2611H912.41C913.166 21.1828 910.265 14.5001 920.609 11.8523C937.513 7.43917 960.093 11.0957 977.627 11.2218C987.088 11.2218 991.755 10.087 1001.97 11.474C1004.37 11.7262 1006.26 9.58267 1008.91 12.987C1011.69 16.5175 1011.69 30.8915 1011.69 35.5568C1011.69 38.0785 1010.55 40.3481 1010.68 42.996C1010.68 47.4091 1013.45 52.0743 1013.58 56.1091C1013.83 64.557 1009.92 79.1832 1009.92 87.8833C1009.92 88.2616 1011.43 88.1355 1011.81 89.5224C1012.44 91.5398 1012.7 93.6833 1012.57 95.7008C1010.55 93.3051 1007.02 95.0703 1004.62 96.5834C1001.97 94.8181 1005 91.6659 1004.24 88.7659L1001.85 87.2529L999.45 89.6485C1002.6 92.9268 999.198 93.5573 999.45 96.079C999.45 96.4573 1000.84 103.77 1000.96 104.149C1001.47 105.662 1004.37 106.04 1002.35 109.697C1005.5 110.201 1003.99 107.175 1005.63 106.04L1007.14 109.697H1010.68C1011.56 110.705 1013.07 132.771 1009.79 134.662C1012.7 135.292 1011.94 141.219 1011.69 143.992C1010.17 157.988 1012.32 169.967 1011.69 184.214C1014.34 191.402 1009.79 202.623 1016.48 207.541C1020.52 210.567 1035.28 208.928 1041.33 208.928C1055.08 208.928 1069.59 210.063 1083.34 208.928L1084.22 210.819C1095.07 210.189 1106.93 208.423 1118.03 208.928C1133.54 209.558 1128.62 224.941 1128.75 234.776C1128.75 239.945 1131.65 242.845 1126.86 247.889L1129.63 246.502C1128.75 250.159 1130.64 254.95 1130.52 258.102C1130.39 262.263 1129.51 266.298 1129.25 271.467C1129.13 275.628 1129 285.337 1126.73 288.237C1123.2 292.776 1116.64 292.524 1111.21 292.524C1103.02 292.524 1091.79 290.759 1084.22 291.011C1080.94 291.011 1077.41 293.281 1074.76 293.281C1063.41 293.659 1049.03 291.263 1037.29 291.515C1030.48 291.641 1023.04 294.037 1015.97 293.407C1010.3 298.576 1013.07 303.998 1012.44 309.672C1011.06 323.163 1012.32 329.09 1012.44 341.572C1012.57 348.381 1008.78 355.568 1011.56 363.007C1006.51 363.259 1007.9 369.564 1008.91 373.094C1013.33 388.351 1011.43 407.012 1011.43 423.782C1011.43 439.543 1009.92 456.565 1010.42 471.443C1010.55 475.226 1014.46 480.521 1009.54 482.665L1011.43 483.673C1011.43 495.147 1015.34 510.404 999.702 512.043C985.826 513.556 967.661 509.521 953.785 510.152C951.515 510.152 950.127 511.791 948.109 512.043C939.531 513.178 930.07 510.278 921.871 509.648C920.735 509.648 920.231 511.917 916.32 509.269C909.13 504.352 912.788 492.752 912.914 485.565C912.914 483.926 911.653 482.034 912.031 479.891C912.41 477.747 916.068 477.243 915.816 474.343H913.04C910.644 472.704 913.923 455.304 912.157 451.395C914.932 453.791 916.068 454.925 919.852 453.286C924.015 447.738 919.474 439.038 912.157 442.064V425.169L912.41 424.916ZM925.403 48.796L923.006 46.0221C920.483 47.7873 922.627 49.1743 925.403 48.796ZM921.744 81.4528C920.483 78.805 922.249 76.5354 919.348 74.8962L916.951 78.1745L921.618 81.4528H921.744ZM926.412 82.4615H924.52V85.2355H926.412V82.4615ZM919.6 89.2703C919.6 89.2703 915.816 86.6224 915.185 87.1268C913.923 98.3486 923.637 94.0616 919.6 89.2703ZM923.637 96.4573C921.114 97.466 919.474 100.114 922.249 102.005L923.637 96.4573ZM995.666 147.019C997.432 147.271 998.441 147.019 999.45 145.632L998.062 144.245H996.675L995.792 147.019H995.666ZM926.412 150.801L925.024 145.253C921.618 147.649 921.744 151.179 926.412 150.801ZM919.852 153.575H917.077C917.077 156.98 919.852 156.98 919.852 153.575ZM925.403 164.923C921.492 161.519 918.969 170.723 925.024 169.462C926.79 169.084 925.781 165.175 925.403 164.923ZM924.52 186.358C919.095 185.98 919.6 190.897 919.852 194.806L924.141 193.923L924.52 186.358ZM1045.24 213.467C1045.87 209.684 1039.06 209.936 1038.68 212.08C1039.19 215.989 1042.72 213.089 1045.24 213.467ZM916.068 215.358H913.293L915.689 218.132L916.194 215.358H916.068ZM923.637 223.806C921.871 223.428 921.114 224.941 919.978 226.202C920.987 227.589 921.997 227.841 923.637 227.589V223.806ZM919.221 241.711C917.834 243.35 917.834 244.989 920.357 245.241C922.123 244.106 921.871 242.467 921.744 240.576C921.744 240.576 919.474 241.458 919.221 241.711ZM922.627 246.25L917.077 247.259C915.815 250.159 919.6 254.95 922.123 251.798L922.627 246.25ZM1095.83 249.906C1095.07 250.915 1096.96 254.319 1098.22 254.572C1099.23 254.698 1101.38 252.68 1101.38 252.302C1101.38 251.293 1097.21 248.141 1095.83 249.906ZM922.627 272.35C916.194 272.602 914.806 279.537 921.24 281.681C924.141 282.185 921.997 274.115 922.627 272.35ZM1070.09 273.359C1067.19 274.115 1069.97 278.528 1071.98 278.024C1074.38 277.52 1073.75 272.35 1070.09 273.359ZM1035.91 276.133L1035.02 279.411L1036.41 280.798L1037.8 279.411V277.646L1035.91 276.133ZM1111.72 277.141C1107.56 277.141 1103.65 275.88 1102.38 280.798C1107.05 283.698 1111.34 283.194 1111.72 277.141ZM1017.36 283.824C1014.71 285.967 1019.25 289.498 1020.89 288.741C1025.06 286.85 1021.27 280.672 1017.36 283.824ZM1014.34 288.363C1011.43 287.985 1009.29 290.002 1009.67 293.028H1014.21V288.363H1014.34ZM986.835 358.468C984.565 359.099 985.826 361.999 988.728 361.242C990.998 360.612 989.737 357.712 986.835 358.468ZM994.656 366.033H992.764L993.647 369.816H995.539L994.53 366.033H994.656ZM917.96 374.355H914.176V378.138H917.96V374.355ZM936.63 388.351C937.765 385.955 937.386 385.325 935.368 383.812L932.971 388.477H936.63V388.351ZM931.079 390.368L929.187 390.873C930.448 393.394 931.458 394.025 930.196 396.925H932.971C932.341 393.899 933.097 393.016 931.079 390.368ZM919.852 398.69L917.96 399.195L920.735 406.255L919.852 398.816V398.69ZM918.969 412.686C919.726 413.19 923.006 412.686 923.637 411.299L920.357 408.021C918.717 408.651 917.708 411.677 918.969 412.686ZM977.879 434.247H975.987V437.021H977.879V434.247ZM976.996 478.252H975.104C974.852 480.017 975.104 481.026 976.492 482.034L976.996 478.252ZM939.531 479.26C936.756 477.243 937.26 484.934 940.414 483.926L939.531 479.26ZM941.423 489.473L937.639 488.465V491.239H941.423V489.347V489.473ZM922.249 497.039C920.357 497.039 920.609 501.326 923.132 500.695C925.655 500.065 922.88 497.039 922.249 497.039Z" fill="white"/>
<path d="M112.774 91.5398C106.467 97.7182 100.285 106.418 99.9071 115.749C99.7809 119.027 100.916 121.927 100.916 125.079C100.916 144.497 96.6273 169.588 114.035 184.088C119.586 188.754 127.785 193.419 133.966 196.949C145.95 203.758 157.303 209.558 170.422 212.836C178.874 214.98 184.046 220.528 190.984 223.176C211.167 230.741 248.632 249.906 257.589 270.711C258.093 271.846 257.084 272.98 257.337 273.359C257.589 273.737 262.13 276.511 263.896 279.411C264.401 280.294 267.933 287.985 267.933 288.489C268.185 290.002 266.041 290.759 266.419 291.263C269.951 291.263 268.942 294.92 270.329 297.315C271.213 298.828 273.357 299.837 273.735 301.35C274.114 302.863 274.745 309.168 274.871 311.437C274.997 313.707 274.618 312.446 273.862 312.446C268.059 312.194 267.302 310.302 263.644 316.103L268.816 319.381L268.311 323.163C270.96 323.92 269.951 321.02 271.717 320.516C273.231 320.011 275.123 320.516 276.763 320.516C275.754 324.046 278.277 327.577 278.529 331.359C278.907 336.907 276.637 339.681 276.006 343.59C276.006 344.346 278.655 348.633 277.52 352.794C277.394 353.298 276.258 353.298 276.006 354.055C275.123 356.198 278.655 369.438 278.781 373.473C279.16 379.903 276.763 388.225 276.763 393.142C276.763 395.538 278.529 397.555 278.529 399.699C278.529 401.464 277.394 403.734 277.394 405.625C277.394 416.469 278.024 427.06 276.889 437.903L273.105 439.921C272.852 440.93 274.618 441.938 274.745 443.451C275.628 458.33 258.472 479.765 247.371 488.969C236.27 498.174 219.997 504.478 206.752 508.134C200.823 509.774 195.651 510.278 189.596 511.665C180.64 513.682 172.062 518.348 162.475 514.061C154.15 510.278 161.214 498.804 162.475 493.004C164.998 481.278 165.755 471.821 163.232 459.969C161.718 453.034 158.06 445.595 155.285 439.038L159.069 440.425C160.331 438.03 157.177 434.499 157.303 433.49C157.429 432.734 167.899 424.916 169.792 422.521C178.243 411.551 179.253 398.186 179.253 384.82C179.253 376.877 178.874 374.229 179.631 365.907C180.136 360.738 176.982 353.298 181.523 350.02C176.856 348.633 177.991 339.051 177.613 338.42C177.234 337.79 174.459 337.411 174.081 335.772C176.73 331.611 178.117 328.333 173.071 325.559L174.964 322.281C173.071 321.903 172.819 323.92 170.927 323.92C169.413 323.92 165.629 323.037 163.989 322.407C159.826 320.642 160.835 315.22 156.168 313.455C149.104 310.681 141.661 305.511 134.345 301.602C120.595 294.289 106.34 288.237 92.5906 281.681C88.9324 279.915 79.7238 276.637 77.327 274.746C75.9394 273.611 76.0656 271.215 74.8041 270.459C73.5427 269.702 70.0106 269.954 67.74 269.198C65.9739 268.567 58.5314 264.911 57.0176 264.028C54.6209 262.389 57.7745 262.893 58.6575 261.128C59.0359 260.372 59.7928 258.48 59.5405 257.598L54.1163 252.302C50.2058 253.437 55.5039 261.38 55.1254 261.633C54.6208 261.633 54.1163 261.759 53.7378 261.633C49.7012 260.119 39.8618 248.772 35.699 245.745C32.167 243.224 28.3826 243.98 25.8597 237.928C25.229 236.415 26.112 234.902 25.8597 234.65C24.9767 233.137 18.9217 229.732 18.5433 229.228C14.885 223.68 6.68559 208.171 4.79341 201.993C3.40581 197.202 4.91955 190.393 1.76592 186.358L4.54112 185.854C0.882902 181.567 1.13519 175.767 0.756756 170.471C0.126029 161.393 1.51363 153.071 1.63977 144.119C2.01821 126.718 -1.76615 108.183 1.00905 91.1616C1.89206 86.1181 3.91039 80.5702 4.54112 75.4006L6.81174 77.2919C9.71308 75.1484 9.46079 71.4919 13.8759 72.6266C11.7314 69.7266 15.1373 65.4396 17.6602 64.1788L12.1098 62.2874L12.9929 59.5135L11.2268 58.5048C19.9309 62.0353 24.2198 57.37 19.5524 48.9221C19.0478 48.0395 16.9034 48.5438 17.6602 45.896C18.4171 45.0134 19.6786 45.0134 20.5616 44.0047C31.0317 31.6481 46.7998 19.4175 62.4419 13.7436C65.3432 12.7349 68.4968 12.987 70.8936 11.8522C72.2812 11.2218 73.2904 9.33048 74.5518 8.95222C77.0747 8.19569 78.5885 10.3392 80.9852 10.5914C81.4898 10.5914 87.671 9.96092 87.9232 9.70874C87.9232 9.70874 87.0402 8.57395 87.2925 8.0696C88.8063 5.04349 100.79 3.65652 104.322 2.26955L103.439 6.93481C107.097 11.3479 111.891 8.95222 114.161 4.53914C115.297 2.39564 112.395 4.03479 111.765 3.15217C110.125 0.504323 119.586 0.882586 121.604 2.64782C126.65 13.1131 119.081 21.6871 118.072 31.9002C116.937 43.1221 118.45 58.2526 122.739 68.844C124.379 72.8788 128.29 74.3919 125.136 80.1919C122.613 84.9833 119.333 85.4876 115.928 87.7572C114.288 88.892 113.909 90.5311 112.774 91.6659V91.5398ZM105.584 9.45657L100.916 8.57395V12.3566C102.556 11.7262 106.34 12.3566 105.584 9.58266V9.45657ZM107.476 13.2392L103.691 13.7436C104.701 15.1305 105.71 15.3827 107.476 15.1305V13.2392ZM81.1114 16.1392H78.4623C78.21 18.4088 79.9761 19.1653 82.2467 18.7871L81.2375 16.1392H81.1114ZM68.1184 18.7871L64.334 16.8958L64.8386 19.7958L59.6667 22.0654L63.8295 28.1176L67.1093 25.848L64.0818 24.461L63.451 22.5697C65.4694 22.1915 68.3707 21.4349 68.1184 18.7871ZM74.678 20.6784L70.0106 18.7871C67.4877 27.235 75.6871 21.6871 74.678 20.6784ZM57.9006 28.1176L57.0176 24.8393L54.2424 24.461L55.1254 27.7393L57.9006 28.1176ZM50.4581 33.7915L46.6737 31.0176C47.809 35.5568 43.3939 32.1524 43.8985 35.6829C47.1783 37.4481 47.5567 34.1698 50.4581 33.7915ZM30.7794 42.2394H28.0042C27.7519 44.0047 28.0042 45.0134 29.3918 46.0221H30.7794V42.2394ZM26.995 224.689C26.3643 223.806 21.823 223.302 22.3276 226.076C23.8414 229.228 28.2565 226.454 26.995 224.689ZM40.1141 236.793C40.4926 235.028 39.105 233.641 37.3389 234.019V235.911L40.1141 236.919V236.793ZM47.3044 239.945C46.1691 238.937 41.5017 238.054 40.9971 240.198C40.1141 244.358 44.9077 242.971 46.926 243.35C47.4306 243.35 47.9351 247.132 49.4489 245.241C49.9535 244.611 47.5567 240.071 47.3044 239.945ZM176.73 256.463C176.73 256.463 177.108 260.119 178.117 260.119C180.892 260.119 178.37 254.572 176.73 256.463ZM95.3658 266.802H93.4736V269.576H95.3658V266.802ZM95.3658 273.359C94.4828 272.476 90.4462 272.602 91.7076 276.511C93.0952 280.798 97.0057 274.998 95.3658 273.359ZM130.813 279.915L125.262 278.024C124.884 281.681 127.533 283.194 130.813 282.689V279.915ZM159.952 287.354H157.177V289.246H159.952V287.354ZM170.17 294.794C167.016 294.037 168.656 297.568 168.278 299.459L172.062 298.45L171.558 296.811L170.548 297.315L170.044 294.668L170.17 294.794ZM271.213 308.915L267.428 307.024V310.807L271.213 309.924V309.042V308.915ZM202.968 309.798H201.076V313.581L203.851 312.698L202.842 309.924L202.968 309.798ZM250.651 332.368H248.759L247.749 335.142L257.084 338.924L255.318 333.755L251.029 334.259L250.651 332.494V332.368ZM186.064 338.798C186.064 338.798 188.84 338.042 188.84 337.411C188.84 334.764 184.677 337.411 186.064 338.798ZM250.651 346.238C254.309 343.842 248.128 334.89 243.208 336.907V348.129C244.848 345.355 250.272 346.49 250.651 346.238ZM270.329 344.472C278.907 342.455 269.825 334.259 269.32 340.311C269.32 341.824 270.203 343.085 270.329 344.472ZM262.887 344.472L258.346 347.498C257.715 348.633 259.355 350.272 258.724 351.029C257.589 352.668 254.435 351.029 254.435 352.92C258.85 354.181 259.607 350.146 263.77 350.146L262.761 344.598L262.887 344.472ZM182.406 345.355L184.803 348.129C187.326 346.364 185.181 344.977 182.406 345.355ZM184.172 354.685C184.677 348.381 178.496 351.659 181.523 354.559C181.523 354.559 183.289 353.929 184.172 354.685ZM274.114 353.803H271.339V356.577L274.114 353.803ZM249.516 360.107C250.02 358.972 249.137 356.451 248.254 355.568C247.245 357.081 242.83 361.242 244.974 363.007C245.479 363.512 249.389 360.233 249.516 359.981V360.107ZM195.021 366.033C192.75 366.538 193.633 370.32 195.904 369.816C198.174 369.312 197.291 365.529 195.021 366.033ZM260.995 381.92C257.463 381.416 254.057 382.299 254.435 386.586C259.733 387.468 257.967 384.82 258.724 383.812C259.481 382.929 261.247 383.434 260.995 381.92ZM196.408 382.803H195.021L192.624 385.577H196.408V382.803ZM230.972 384.694H227.314C226.179 387.09 226.557 387.72 228.575 389.36L230.972 384.694ZM193.633 396.799L195.525 395.412L194.138 393.142L193.633 396.925V396.799ZM255.318 393.142C252.921 392.512 252.795 395.538 251.534 396.925C255.066 397.177 256.832 396.925 255.318 393.142ZM198.3 400.581C195.525 399.951 194.138 397.051 193.633 401.464L198.3 402.347V400.455V400.581ZM190.732 400.581L188.84 401.086C190.984 406.886 181.019 414.073 187.452 419.242C193.633 418.612 187.704 409.408 196.282 407.642C196.156 403.608 192.876 410.038 191.11 407.264L190.606 400.708L190.732 400.581ZM183.289 403.355H178.622C177.865 407.012 180.514 410.164 183.163 406.508V403.355H183.289ZM258.22 409.912C259.481 409.029 258.472 405.877 256.832 405.247C252.417 407.39 256.075 411.551 258.22 409.912ZM216.97 409.912L213.69 408.273L211.42 410.416C213.186 413.064 216.718 414.199 216.97 409.912ZM205.995 414.451C205.995 414.451 208.644 415.46 209.023 416.469C212.429 413.442 209.527 411.173 205.743 411.803C205.743 412.686 205.491 413.695 205.995 414.451ZM252.543 412.812H249.768V416.595H252.543V412.812ZM184.298 427.69C186.443 427.186 186.191 424.79 186.191 423.025C184.046 423.529 184.298 425.925 184.298 427.69ZM191.615 427.816C188.083 425.295 184.551 431.977 189.47 433.238C193.507 434.247 192.75 428.699 191.615 427.816ZM269.447 434.247C269.447 434.247 270.203 437.021 270.834 437.021C273.483 437.021 270.834 432.86 269.447 434.247ZM194.516 439.921C195.021 438.66 193.255 434.121 192.624 435.256C192.498 437.021 192.372 439.417 194.516 439.921ZM176.099 442.443C175.342 441.938 175.09 440.047 174.459 439.921L171.179 442.317C171.179 443.83 179.379 447.612 178.622 442.821C177.865 442.821 176.73 443.073 176.099 442.569V442.443ZM167.395 442.695H165.503V445.469H167.395V442.695ZM253.426 443.704H250.651V445.595H253.426V443.704ZM179.505 449.251C180.136 449.882 183.668 448.873 183.289 446.982C182.532 443.577 177.739 447.486 179.505 449.251ZM244.091 456.691C247.497 456.691 247.497 453.917 244.091 453.917V456.691ZM254.309 457.699L248.759 458.582L249.263 460.473H252.165L252.669 465.138C255.066 467.282 255.697 458.582 254.435 457.699H254.309ZM245.1 464.256L242.325 466.652C245.1 467.408 243.713 467.66 243.334 469.93L245.227 464.382L245.1 464.256ZM242.199 478.252C240.685 475.478 240.559 474.847 236.649 474.469C236.27 477.999 240.685 474.595 239.424 479.134C240.433 479.513 241.821 478.252 242.199 478.252C244.091 481.656 244.596 483.799 242.199 487.204L245.983 488.086L248.759 483.547L250.651 484.052V478.378L253.426 480.269C253.426 475.226 252.669 472.325 246.866 471.821L246.362 478.378C245.353 480.143 243.587 478.378 242.199 478.378V478.252ZM234.757 486.699L231.981 485.691C231.729 487.078 232.36 487.708 233.369 488.465H234.757V486.573V486.699ZM217.979 497.921H214.195C214.195 501.704 217.979 501.578 217.979 497.921Z" fill="white"/>
<path d="M615.716 11.3479L611.932 12.3566C613.95 15.8871 617.86 14.5001 617.608 10.5914L648.388 9.58266V15.0044C649.901 16.1392 656.461 19.1653 654.821 14.8783C653.812 12.3566 651.163 12.4827 650.28 10.5914C653.938 11.2218 657.47 9.58266 661.002 9.58266C665.543 9.58266 670.715 10.7174 676.013 10.5914C678.284 10.5914 680.302 9.45657 682.447 9.58266C687.745 10.087 691.025 17.6523 691.529 22.1915C692.034 26.4784 690.899 34.5481 691.656 38.8351C691.908 40.6003 694.683 44.3829 694.809 46.5264C694.935 49.5525 692.791 53.2091 693.295 57.7483C694.178 65.8179 697.837 73.8875 696.071 82.9659C695.566 85.4876 693.169 85.7398 693.295 88.1355L697.963 87.2528C699.224 91.9181 695.188 88.3876 695.188 91.4137C699.855 93.6833 699.098 96.5833 698.972 101.249L695.188 101.753L698.972 103.77C699.477 109.823 699.35 116.505 699.855 122.431C701.999 146.01 705.027 168.958 707.045 192.788C708.054 204.641 711.839 224.689 710.199 235.658C709.568 239.441 706.288 240.198 708.937 244.485C709.947 246.25 713.1 247.889 713.1 249.78C713.1 252.176 709.064 251.419 710.199 254.95L712.974 253.059C712.974 259.993 712.848 266.928 713.605 273.737C717.137 306.772 721.426 339.933 722.687 373.22C722.94 378.768 725.336 385.325 725.967 390.242C726.724 396.294 725.715 405.247 726.219 411.551C726.219 412.938 729.121 421.386 730.004 422.269C733.788 426.177 744.258 422.899 749.43 426.303L748.547 428.195H751.322L750.439 425.421C754.476 425.925 760.026 424.664 763.811 425.421C764.441 425.547 764.568 426.808 764.694 426.934C766.46 427.564 768.226 426.934 770.118 429.203V425.421C771.884 424.664 773.524 426.934 774.407 426.934C776.678 426.934 778.065 421.512 783.237 428.195L784.751 424.412C796.23 427.06 814.773 419.495 822.594 431.473C823.351 432.608 823.73 433.364 823.477 434.751C821.459 434.751 818.936 434.121 817.927 436.264C816.666 440.425 822.216 440.551 822.468 441.812C822.468 442.19 821.711 448.999 821.585 450.134C820.45 457.699 820.828 465.643 819.693 471.695C819.315 473.586 817.549 474.721 817.296 476.36C816.413 485.565 818.81 492.5 813.764 502.334C808.718 512.169 796.104 507.378 787.4 507C783.615 506.874 778.444 507.756 774.155 507C772.515 506.747 770.749 504.982 769.74 505.108C767.09 505.487 765.955 508.891 759.269 507.756C750.944 506.369 743.88 507 735.05 507.252C714.74 507.63 694.052 507.882 674.121 507.756C665.796 507.756 652.677 509.269 645.486 505.487C641.323 503.343 638.674 498.804 642.711 495.147L640.819 493.76L639.936 495.652C638.927 493.256 639.936 489.726 639.557 487.834C636.152 465.643 633.629 441.812 630.601 419.368C628.709 405.247 628.835 390.116 626.817 376.373C626.438 374.103 626.817 371.707 626.817 369.438L628.709 368.555C622.023 369.69 627.447 360.612 626.817 360.107L623.915 359.603C623.789 355.694 624.294 351.407 623.915 347.498C623.537 342.959 623.411 337.411 622.906 333.503C622.528 330.477 618.996 324.424 619.248 321.146C619.248 319.003 627.826 311.816 618.239 313.202C617.86 310.933 619.879 308.159 619.626 306.142C619.626 305.007 617.734 303.242 617.482 301.224C616.851 297.315 617.734 293.281 617.23 289.372C616.599 283.95 615.842 281.302 615.338 275.376C615.211 272.728 611.553 266.046 612.815 264.659C613.067 264.406 615.842 264.659 614.454 262.641C614.454 262.641 612.815 262.893 612.562 262.011C611.932 259.615 612.941 254.95 612.562 251.924C609.03 226.328 605.498 200.984 602.723 175.01C599.191 142.984 597.173 108.94 591.244 76.7875C589.604 67.7092 588.342 58.883 587.459 49.6786C586.576 41.1046 584.053 24.8393 585.567 17.0218C587.081 8.82613 602.597 10.9696 608.526 10.9696C611.049 10.9696 614.328 8.57395 615.464 11.8522L615.716 11.3479ZM672.734 12.2305C671.725 10.8435 667.562 12.2305 668.066 14.5001C668.697 17.7784 674.752 14.8784 672.734 12.2305ZM593.262 35.6829L596.542 40.3481L597.929 37.0698L593.262 35.6829ZM683.961 40.3481C682.825 39.3394 679.672 44.0047 679.419 44.7612C678.158 49.3004 684.465 48.0395 685.727 44.509L683.961 40.4742V40.3481ZM683.961 50.6873C673.238 48.9221 678.915 57.8743 683.33 54.47L683.961 50.6873ZM683.078 63.6744C683.078 63.6744 682.699 60.0178 681.69 60.0178C678.915 60.0178 681.438 65.5657 683.078 63.6744ZM677.401 66.5744C677.78 63.5483 676.392 62.4135 673.617 62.7918L674.5 65.5657L671.725 64.6831C672.103 69.6005 674.247 64.9353 677.275 66.5744H677.401ZM608.147 85.2354C611.553 85.2354 611.553 82.4615 608.147 82.4615V85.2354ZM683.961 86.2441C677.653 85.7398 680.05 93.179 684.844 93.6833L683.961 86.2441ZM685.853 94.5659C686.862 94.5659 691.025 97.9703 691.403 95.0703C691.782 92.1703 686.357 92.6746 685.853 94.5659ZM641.45 97.466L640.062 98.8529L642.333 100.24L643.72 98.8529L641.45 97.466ZM596.92 98.3486H595.028V103.014L597.425 102.131L596.92 98.3486ZM694.305 105.788L690.52 102.005C690.268 104.023 692.412 105.914 694.305 105.788ZM664.787 112.344C662.894 112.849 662.894 116.505 664.787 117.01C669.075 118.27 669.075 111.083 664.787 112.344ZM657.849 118.901C655.2 117.01 653.055 122.179 655.073 123.566C657.722 125.457 659.867 120.288 657.849 118.901ZM632.493 129.24C630.727 128.988 629.214 129.24 628.709 131.131H632.493V129.24ZM680.302 131.131H673.238C671.22 136.553 679.546 135.797 680.302 131.131ZM629.718 143.236C631.358 145.001 633.881 139.453 631.106 139.579C630.097 139.579 629.087 142.732 629.718 143.236ZM612.815 147.019H610.039C610.039 150.423 612.815 150.423 612.815 147.019ZM694.305 170.345L698.089 166.184L693.422 162.906C692.286 165.932 693.926 167.571 694.305 170.345ZM681.69 173.245C679.041 173.749 683.078 180.936 684.465 181.693C687.745 178.793 685.222 174.127 681.69 173.245ZM673.238 180.684C668.949 184.341 671.851 189.132 675.509 183.836L673.238 180.684ZM705.532 198.462C705.532 195.058 702.756 195.058 702.756 198.462H705.532ZM696.197 196.571V197.958L698.594 200.354L699.981 198.967L697.584 196.697H696.197V196.571ZM684.97 201.236C684.97 201.236 688.754 200.858 688.628 199.849C688.628 196.193 682.447 198.841 684.97 201.236ZM697.08 204.136C696.197 205.776 699.603 209.684 700.36 209.684C703.892 209.684 702.504 202.371 697.08 204.136ZM698.089 230.237L696.701 224.689L694.809 227.589L698.089 230.363V230.237ZM628.331 226.58C626.312 227.084 627.069 230.363 628.331 230.237C629.97 230.237 631.484 225.824 628.331 226.58ZM696.197 245.241C696.197 246.124 696.197 247.132 696.197 248.015H698.972V245.241C698.089 245.241 697.08 245.241 696.197 245.241C696.197 242.467 697.458 239.189 694.809 236.793C693.043 236.793 692.412 245.367 694.809 245.998C695.314 245.998 695.944 245.241 696.197 245.241ZM615.716 237.802C613.95 237.55 612.436 237.802 611.932 239.693H615.716V237.802ZM699.855 262.137C698.341 260.624 695.566 263.398 697.08 264.911C698.593 266.424 701.369 263.65 699.855 262.137ZM631.61 268.693C633.376 268.946 634.385 268.693 635.395 267.306L632.998 264.028C631.232 265.163 631.484 266.676 631.61 268.693ZM683.078 266.802C683.078 266.802 682.321 264.028 681.69 264.028C679.041 264.028 681.69 268.189 683.078 266.802ZM707.55 281.554C707.55 281.554 710.073 282.689 710.703 283.32L712.974 280.42C711.46 277.772 709.947 277.898 707.424 278.907C707.424 279.789 707.171 280.798 707.55 281.554ZM625.934 293.028C620.131 292.02 624.798 297.063 625.934 295.802V293.028ZM667.688 293.911L665.417 297.063L667.688 299.459L669.075 298.072C669.328 296.307 669.328 294.92 667.688 293.911ZM680.302 309.798L678.41 308.411L674.626 311.689L680.176 309.798H680.302ZM628.709 310.933H624.168C623.663 314.842 625.681 316.985 629.718 316.355L628.709 310.933ZM711.082 336.907L708.181 339.177L710.577 342.455L711.082 336.907ZM629.718 354.685C634.638 355.064 634.638 350.525 629.718 350.903V354.685ZM704.648 367.799C704.648 367.799 707.424 367.042 707.424 366.412C707.424 363.764 703.261 366.412 704.648 367.799ZM683.078 369.69C683.078 369.69 682.447 372.086 682.573 372.464C690.899 378.516 686.61 366.79 683.078 369.69ZM679.293 381.92C679.293 381.92 674.121 381.92 674.626 384.19L676.013 385.577L679.167 384.568C679.167 384.568 679.293 381.92 679.167 381.92H679.293ZM632.493 384.694C632.367 388.225 632.115 397.555 638.17 393.647C641.323 391.503 633.629 383.433 632.493 384.694ZM634.385 410.921L639.053 408.525L636.656 405.247L634.385 410.795V410.921ZM712.091 406.255H708.307V408.147H712.091V406.255ZM636.278 416.469C636.278 414.451 636.656 412.938 634.89 411.803L633.502 414.073L636.278 416.469ZM639.053 417.477L634.385 418.36L639.053 420.251V417.477ZM642.837 424.034L644.729 422.647L641.45 420.251L640.062 422.142L642.837 424.034ZM706.036 424.916C703.261 425.547 705.91 429.582 706.919 429.582C709.694 429.582 709.064 424.286 706.036 424.916ZM741.105 431.473C742.871 431.977 746.15 429.96 745.772 428.195C745.141 424.916 740.095 430.464 741.105 431.473ZM668.066 431.473C668.319 429.834 666.805 428.447 665.291 427.69C665.039 429.329 666.553 430.716 668.066 431.473ZM764.946 431.977C763.937 430.464 762.549 428.447 760.783 427.69C760.405 431.473 760.909 434.625 764.063 437.021C766.207 437.525 766.964 434.373 766.207 432.608C766.207 432.356 765.198 432.356 764.946 431.977ZM757.882 428.699C754.981 427.816 756.116 433.616 757.377 434.247L757.882 428.699ZM815.026 438.03L814.521 432.356L810.358 436.516L815.026 437.903V438.03ZM640.062 433.364L639.179 435.76L640.567 437.147L641.954 434.877L640.062 433.49V433.364ZM771.001 439.921C773.398 440.173 774.155 438.408 773.776 436.138L771.001 438.534V439.921ZM795.347 439.921C795.347 439.921 796.104 442.695 796.735 442.695C799.384 442.695 796.735 438.534 795.347 439.921ZM669.075 444.586C664.156 443.073 663.904 453.286 666.805 453.917C670.715 453.16 668.697 447.486 669.075 444.586ZM817.801 450.134C814.017 447.612 808.088 453.664 812.124 456.312C815.404 458.33 818.558 451.269 817.801 450.134ZM673.743 453.917C674.121 449.251 670.589 449.251 670.968 453.917H673.743ZM812.251 468.038L807.457 467.534L804.682 471.317L807.457 472.704L807.835 469.804L812.124 468.038H812.251ZM652.172 479.134C656.083 477.243 655.83 474.091 651.289 474.469L652.172 479.134ZM812.251 478.252L810.358 481.026L807.583 480.143V482.917L811.368 483.547L812.251 478.378V478.252ZM720.543 480.143C720.29 482.034 720.669 483.799 722.813 483.926L724.201 482.539L721.804 480.269H720.417L720.543 480.143ZM658.605 491.491C657.218 490.734 654.947 491.239 654.064 492.752C654.316 494.643 656.209 497.921 658.227 497.921L660.624 496.408C660.876 495.4 658.984 491.743 658.605 491.491Z" fill="white"/>
<path d="M1255.78 8.57396C1255.78 9.83484 1253.89 10.4653 1253.38 11.3479C1251.36 15.2566 1260.57 15.6349 1255.78 9.45658L1291.35 10.8435C1294.38 12.2305 1301.82 30.7654 1302.7 35.0524L1298.92 36.9438C1299.8 39.8438 1302.2 39.4655 1303.96 41.2307C1305.98 43.1221 1308.76 50.183 1309.89 53.083C1315.07 66.8266 1318.22 82.0833 1324.27 95.8268C1325.03 97.7182 1327.55 99.7356 1327.81 100.744C1328.18 102.383 1327.05 103.896 1327.3 105.031C1328.44 110.831 1333.86 121.675 1336.13 127.853C1354.17 176.523 1371.07 230.489 1391.38 279.411C1395.8 290.128 1396.68 301.981 1401.22 312.698C1410.31 334.007 1417.5 356.703 1425.06 378.768C1427.59 386.081 1431.62 392.764 1432.76 400.329L1430.99 401.338L1433.89 401.842L1442.98 424.412C1443.86 429.582 1439.32 427.564 1439.45 431.221C1442.98 431.347 1446.89 432.734 1447.77 436.643C1448.28 439.29 1447.39 441.56 1444.62 439.669L1444.11 441.56L1448.28 442.569L1448.65 444.334C1446 443.956 1447.14 446.856 1446.76 447.234C1446.38 447.738 1442.09 444.712 1442.98 447.738C1445 454.421 1449.41 447.738 1450.42 448.621C1451.05 451.269 1457.74 463.373 1456.1 465.012L1449.92 465.895C1446.13 468.543 1453.95 475.856 1456.6 468.795C1458.37 470.434 1461.27 473.082 1460.76 475.73L1457.99 477.117L1461.77 477.747C1461.14 480.647 1463.67 482.413 1464.3 484.43C1465.3 487.96 1467.45 500.821 1465.43 503.721C1462.91 507.252 1455.21 504.856 1451.43 506.117C1455.34 497.165 1444.62 497.291 1448.65 506.117C1445.37 508.008 1442.72 505.991 1439.7 506.117C1429.86 506.369 1419.89 507.882 1409.93 507C1407.66 506.874 1402.86 504.982 1401.48 505.234C1400.47 505.361 1400.59 507.756 1399.46 508.008C1398.45 508.261 1392.9 506.621 1390.88 506.621C1387.85 506.621 1383.56 508.008 1380.91 507.882C1378.9 507.756 1377 505.991 1375.24 505.865C1373.47 505.739 1371.45 506.874 1368.8 506.117C1361.36 503.974 1359.97 488.591 1357.96 482.413C1351.65 463.625 1343.45 445.091 1337.77 425.799C1336.89 422.899 1333.99 421.008 1336.38 417.351L1333.48 416.847C1332.1 407.642 1328.31 399.447 1323.64 391.251C1323.27 389.36 1327.68 388.855 1321.37 386.838C1321.37 383.938 1321.88 380.786 1320.99 378.012C1320.49 376.246 1318.6 375.238 1317.84 373.599C1314.69 366.159 1311.16 355.316 1310.02 347.877C1309.39 343.842 1304.09 336.403 1303.71 333.377C1303.46 330.855 1305.6 330.603 1305.48 328.459L1302.7 330.35C1302.7 328.459 1301.19 326.694 1300.94 324.929C1300.56 322.029 1303.71 322.533 1298.79 321.272C1298.04 318.75 1298.29 315.85 1297.41 313.455C1295.13 306.268 1289.96 299.585 1290.34 291.011H1287.94C1287.94 288.111 1285.67 286.22 1284.92 283.824C1284.54 282.437 1283.78 274.872 1283.53 274.367C1283.15 273.863 1281.64 273.737 1280.75 272.098C1279.49 269.576 1279.75 264.533 1278.86 263.146C1278.48 262.389 1276.09 262.515 1275.46 260.372C1273.56 254.193 1272.68 244.358 1270.54 238.306C1270.16 237.424 1268.9 237.55 1268.39 236.415C1267.26 233.263 1261.2 219.015 1262.21 217.123C1262.84 215.989 1266.5 216.241 1265.24 211.576C1263.47 205.145 1258.3 207.919 1256.66 205.145C1255.65 203.632 1255.4 199.345 1254.39 197.075C1252.88 193.167 1250.61 189.51 1249.22 185.349C1246.82 178.162 1245.81 168.327 1242.41 162.906C1238.5 156.727 1240.89 155.719 1239.38 151.053C1239 149.792 1236.73 149.919 1236.22 147.775C1235.72 145.758 1236.22 143.488 1235.59 141.849C1234.33 138.066 1230.17 133.401 1232.06 128.988H1229.41C1229.03 122.81 1225.25 117.136 1223.23 111.21C1221.97 107.553 1221.59 103.014 1220.33 99.1051C1219.07 95.1964 1215.16 91.0355 1216.17 85.7398C1216.17 85.3615 1219.07 83.9746 1218.94 82.7137C1218.82 80.318 1214.53 81.705 1213.39 83.218C1211.63 78.3006 1210.49 73.2571 1209.1 68.2136C1208.22 65.1875 1205.7 63.8005 1207.72 59.7657L1204.94 60.6483C1204.18 58.1265 1203.55 54.8482 1202.42 52.4526C1201.28 50.0569 1195.1 47.6612 1203.55 46.6525L1203.93 41.9873L1199.26 45.7699C1196.99 38.3307 1195.23 30.7654 1193.21 23.3263C1192.58 21.0567 1190.31 19.6697 1191.06 16.6436C1192.58 10.3392 1201.91 9.70876 1207.34 9.33049C1211 9.07832 1218.69 8.95223 1222.35 8.95223C1233.7 9.2044 1244.8 13.6175 1255.53 8.44788L1255.78 8.57396ZM1201.53 34.6742C1201.53 34.6742 1197.37 33.5394 1196.87 33.7916C1196.36 35.0524 1200.78 36.0611 1201.53 35.6829C1201.53 35.4307 1201.66 34.9263 1201.53 34.8003V34.6742ZM1233.2 47.9134L1227.77 45.896C1227.27 49.1743 1229.79 50.0569 1231.94 51.4439L1233.2 47.7873V47.9134ZM1286.68 75.9049C1285.3 76.4093 1284.29 74.6441 1284.79 78.6789L1287.19 77.7963C1287.82 77.0397 1286.68 76.2832 1286.68 75.9049C1290.97 74.1397 1291.98 72.5006 1286.68 72.1223C1286.68 73.3832 1286.68 74.6441 1286.68 75.9049ZM1316.71 82.4615C1313.3 82.4615 1313.3 85.2355 1316.71 85.2355V82.4615ZM1303.59 103.014C1303.59 100.996 1304.09 98.0964 1301.69 97.466V103.014H1303.59ZM1240.89 108.688C1240.89 105.283 1238.12 105.283 1238.12 108.688H1240.89ZM1260.07 125.458L1258.68 127.727L1261.96 129.997L1263.35 127.727L1260.07 125.458ZM1297.03 127.349C1292.23 125.205 1291.1 131.51 1297.03 130.123V127.349ZM1263.35 140.462C1262.08 133.527 1255.78 138.445 1261.2 140.336C1261.96 140.588 1262.72 140.462 1263.35 140.462ZM1294.63 137.688C1292.36 138.192 1293.24 141.975 1295.51 141.471C1297.78 140.966 1296.9 137.184 1294.63 137.688ZM1242.78 138.571H1240.01V140.462H1242.78V138.571ZM1338.15 138.571H1336.26C1335.88 140.588 1334.49 141.723 1336.76 143.236L1339.03 141.849L1338.15 138.571ZM1316.71 147.019C1316.71 147.019 1317.46 149.792 1318.09 149.792C1320.74 149.792 1318.09 145.632 1316.71 147.019ZM1253 157.358L1247.45 156.475C1247.33 157.988 1247.33 160.51 1248.84 161.14C1251.87 162.275 1250.73 159.88 1251.49 158.619C1251.87 157.988 1253.51 158.871 1253.13 157.484L1253 157.358ZM1302.58 183.458C1300.81 183.206 1299.3 183.458 1298.79 185.349C1300.56 185.601 1302.07 185.349 1302.58 183.458ZM1296.52 191.023C1294.13 192.158 1294.76 200.354 1296.52 200.354L1299.8 196.193L1296.52 191.023ZM1291.35 191.906H1288.58C1288.58 195.31 1291.35 195.31 1291.35 191.906ZM1263.35 205.902C1263.98 202.876 1261.2 201.362 1258.68 201.236C1258.3 204.262 1260.44 206.28 1263.35 205.902ZM1336.26 226.58C1335.5 225.824 1332.47 226.202 1333.48 228.85C1334.62 232.128 1337.52 227.715 1336.26 226.58ZM1304.47 234.902C1304.47 231.497 1301.69 231.497 1301.69 234.902H1304.47ZM1276.47 251.798L1281.13 250.411L1278.74 246.25C1276.72 247.637 1276.09 249.402 1276.34 251.798H1276.47ZM1283.91 255.58H1285.3L1287.69 253.185C1285.55 250.285 1283.53 252.554 1284.03 255.58H1283.91ZM1297.91 266.802C1298.16 265.037 1296.9 263.65 1295.13 264.028V266.802H1297.91ZM1341.05 264.911C1336.13 264.533 1336.13 269.072 1341.05 268.693V264.911ZM1375.62 298.576C1376.5 297.694 1374.48 294.541 1373.22 293.911L1371.83 297.189C1372.21 298.45 1374.98 299.081 1375.62 298.576ZM1308 321.65C1309.64 319.381 1308.13 310.933 1305.48 312.572C1306.74 316.607 1302.45 319.255 1304.6 323.794C1304.72 323.92 1307.75 321.903 1308 321.65ZM1319.48 349.138C1313.93 347.751 1314.31 359.603 1319.48 357.081V349.138ZM1321.37 363.133C1316.58 365.529 1320.36 369.69 1321.37 366.412C1321.63 365.529 1321.37 364.142 1321.37 363.133ZM1413.96 366.033H1410.18V367.42L1411.57 368.807L1413.96 366.033ZM1390.12 369.69C1387.22 370.446 1390 374.86 1392.01 374.355C1394.41 373.851 1393.78 368.681 1390.12 369.69ZM1381.29 381.92C1381.04 383.686 1381.29 384.694 1382.68 385.703L1385.96 383.307C1384.82 381.542 1383.31 381.794 1381.29 381.92ZM1342.82 415.586C1343.2 410.921 1339.66 410.921 1340.04 415.586H1342.82ZM1340.67 420.377C1337.02 421.512 1340.17 427.06 1343.83 424.538C1346.22 422.773 1344.08 419.369 1340.67 420.377ZM1414.97 428.699C1415.35 423.782 1410.81 423.782 1411.19 428.699H1414.97ZM1352.28 430.59V429.203L1349.5 426.808C1349.25 428.573 1349.5 429.582 1350.89 430.59H1352.28ZM1354.04 435.256C1352.66 435.256 1351.52 435.004 1350.76 436.138L1350.39 438.912H1354.17V435.13L1354.04 435.256ZM1374.61 453.917C1378.64 441.056 1369.31 442.317 1371.96 453.917H1374.61ZM1379.4 450.134C1377.63 448.621 1375.62 453.286 1378.01 453.917C1380.41 454.547 1380.28 451.017 1379.4 450.134ZM1359.72 455.808C1359.09 446.225 1355.18 454.547 1358.33 455.808C1358.71 455.934 1359.22 455.808 1359.72 455.808ZM1449.54 454.925C1448.91 455.43 1441.34 456.312 1442.09 457.699C1444.36 457.952 1444.24 460.599 1447.14 459.591L1449.54 454.925ZM1456.1 477.369L1450.55 478.252L1455.21 480.143L1456.1 477.369ZM1427.08 483.926C1429.61 485.817 1432.25 481.026 1428.47 480.143C1425.95 479.639 1426.33 483.295 1427.08 483.926ZM1459.88 487.582C1459.88 484.178 1457.11 484.178 1457.11 487.582H1459.88ZM1364.39 488.591H1361.61V490.482H1364.39V488.591ZM1381.04 494.895C1384.57 491.617 1377.76 489.347 1377.51 496.03C1378.01 496.408 1380.41 495.4 1381.04 494.895ZM1407.4 502.587C1407.4 502.587 1404.63 503.343 1404.63 503.974C1404.63 506.621 1408.79 503.974 1407.4 502.587Z" fill="white"/>
<path d="M871.917 4.03479C875.323 6.17828 875.071 14.6262 874.944 18.2827C874.061 38.4568 869.646 65.8179 866.745 85.8659C866.114 90.6572 863.844 98.8529 863.718 102.509C863.339 109.066 864.222 110.831 863.087 118.649C861.699 127.853 861.195 137.184 859.933 146.388C852.743 201.489 844.543 257.093 837.605 312.194C834.578 336.277 831.929 359.855 828.397 383.434C827.135 391.755 828.901 404.868 816.035 401.464L817.927 403.355C809.349 404.616 801.654 403.355 793.076 402.977C789.922 402.977 784.624 405.247 783.741 401.464C782.101 405.877 776.677 403.103 773.397 403.229C769.613 403.481 766.459 404.364 762.044 404.238C756.368 404.238 748.294 404.49 745.015 399.825C739.717 392.512 742.618 380.281 741.735 372.086C741.735 370.951 740.347 369.69 740.221 368.177C739.59 362.629 739.969 357.333 738.329 351.911L741.104 351.407C740.473 350.398 738.455 350.398 738.329 349.39C738.077 348.003 737.32 339.933 737.32 338.294C737.446 333.503 737.824 334.007 737.446 328.837C737.068 323.037 738.581 318.246 738.329 312.446L741.104 313.329V310.555C740.6 309.924 737.951 313.076 738.329 310.176C738.581 308.537 739.338 304.629 739.843 303.368C740.473 301.981 742.996 302.485 741.987 299.081C741.735 298.324 739.969 298.828 740.095 297.189C740.095 288.489 743.122 277.141 744.006 268.063C744.51 262.263 745.267 256.337 745.772 250.285C746.024 247.763 746.024 230.867 746.655 230.111H750.313C753.214 226.328 748.799 224.563 748.547 223.806C747.664 219.645 749.177 215.106 749.43 210.945C749.682 206.28 749.934 205.523 750.439 201.362C752.836 182.828 752.836 162.653 756.746 144.119C757.377 141.218 755.989 137.94 758.891 135.923C754.223 134.41 758.638 128.736 758.891 125.584C759.143 121.171 759.395 118.775 759.774 114.362C760.531 106.04 760.657 97.7182 761.792 89.6485C763.558 90.5311 765.072 91.1616 766.459 89.1442C767.469 85.6137 762.927 86.3702 762.675 85.3615C761.414 79.0571 764.819 72.3745 765.324 66.7005C765.829 61.0266 764.819 52.9569 765.576 46.2743C765.829 43.5003 765.955 41.2307 769.235 41.9873C769.613 40.4742 767.595 41.609 767.342 40.4742C766.081 35.6829 769.487 28.3698 770.118 23.7045C770.874 18.0306 768.225 7.31307 775.163 4.41305C777.056 3.65652 784.877 3.02608 787.526 2.77391C791.436 2.52173 796.356 2.39564 800.266 2.39564C817.044 2.39564 834.704 3.15217 852.112 2.9C855.897 2.9 859.302 1.51303 863.339 1.89129C864.727 1.89129 871.034 3.53044 871.917 4.03479ZM768.73 95.5747C768.73 95.5747 766.586 97.466 767.721 98.3486L771.505 100.114C774.659 98.979 768.982 95.4486 768.73 95.4486V95.5747ZM765.45 102.131C765.324 104.023 765.072 105.662 766.838 106.796L768.225 105.41C766.712 104.527 766.838 101.879 765.45 102.131ZM772.893 122.684L771.505 114.236C768.856 116.505 769.991 121.171 772.893 122.684ZM767.342 125.457H764.567C764.567 128.862 767.342 128.862 767.342 125.457ZM774.785 136.679L772.388 125.457C768.73 128.231 769.235 137.184 774.785 136.679ZM767.342 138.571C767.342 135.166 764.567 135.166 764.567 138.571H767.342ZM761.666 150.801H759.017L758.008 153.575C759.774 153.827 760.783 153.575 761.792 152.188V150.801H761.666ZM772.01 169.462C765.955 168.706 766.207 173.623 772.01 171.354V169.462ZM769.108 180.684C767.973 179.801 764.441 183.332 765.324 184.467C766.207 185.475 769.991 181.567 769.108 180.684ZM761.666 185.349L756.998 188.628C759.017 191.78 760.531 186.736 761.666 185.349ZM768.099 188.249C766.459 187.241 760.531 187.997 761.666 191.402C763.053 195.562 772.01 190.645 768.099 188.249ZM758.891 194.68C758.26 195.31 759.269 198.841 761.161 198.462C764.567 197.706 760.657 192.915 758.891 194.68ZM773.776 199.471C771.505 198.462 770.118 198.084 768.604 200.354L770.118 205.019C772.893 204.01 774.533 202.749 773.776 199.471ZM755.106 209.684L754.223 205.397L749.43 205.019L754.98 209.684H755.106ZM767.09 217.376C765.576 215.736 763.558 216.745 762.801 218.637L765.072 222.545C768.604 222.545 769.235 219.645 767.09 217.25V217.376ZM753.214 232.128L749.43 233.137L751.827 236.919C754.728 237.298 753.971 232.884 753.214 232.254V232.128ZM750.439 240.576C748.673 240.198 747.285 241.585 747.664 243.35H749.556L750.565 240.576H750.439ZM765.45 249.906C764.567 250.032 760.909 249.024 761.666 251.293C761.666 251.545 763.558 253.689 763.558 252.05L765.45 249.906ZM753.214 270.459L750.439 267.685V270.459H753.214ZM748.168 271.467C746.15 273.359 742.996 275.502 746.276 278.024C747.79 278.402 751.07 274.62 750.439 272.854L748.168 271.467ZM769.235 286.472L766.459 285.589C766.964 290.128 763.432 292.146 765.576 296.811C768.604 297.568 766.333 293.785 766.964 291.641C767.595 289.876 769.361 288.615 769.235 286.472ZM756.115 309.798C752.71 309.798 752.71 312.572 756.115 312.572V309.798ZM784.75 375.616C784.75 375.616 781.723 373.599 780.966 373.599L774.911 377.76C774.911 384.19 778.696 384.316 783.994 384.694C784.12 381.29 787.4 378.894 784.75 375.616ZM747.664 382.803C749.556 381.038 743.879 376.373 742.113 378.138C740.347 379.903 745.898 384.568 747.664 382.803ZM797.491 383.434C801.906 388.603 808.34 383.938 803.672 378.264L797.365 379.147C796.734 380.66 796.356 382.047 797.491 383.434ZM760.783 382.803L756.998 383.686V385.577H758.386L760.783 382.803ZM758.891 390.242C758.891 390.242 762.297 390.242 762.549 388.729L761.666 384.694C759.521 384.947 758.008 389.486 758.891 390.242ZM753.214 390.368C750.691 390.368 747.916 392.007 748.547 395.034L752.71 394.151L753.214 390.368ZM757.882 390.368L755.485 391.251L755.989 395.034C758.26 394.529 756.746 392.134 757.882 390.368ZM815.908 393.142C810.232 394.025 814.016 398.942 817.801 398.816L815.908 393.142ZM770.118 397.808C768.225 397.808 766.586 397.429 765.45 399.194L766.838 400.581L770.118 399.699V397.808Z" fill="white"/>
<path d="M1220.2 182.575L1216.42 183.458C1224.87 182.197 1222.98 192.915 1224.87 198.715C1229.29 212.206 1236.73 227.337 1241.78 240.954C1245.81 251.924 1248.97 263.272 1252.37 274.241C1253.13 276.511 1256.41 278.654 1257.17 281.68C1257.92 284.707 1257.29 287.733 1258.17 290.885C1259.44 295.172 1263.72 300.846 1265.49 305.133C1268.64 312.95 1271.55 322.281 1274.19 330.098C1274.95 332.242 1276.84 342.077 1275.96 343.464L1269.91 346.742L1273.06 349.011L1276.47 346.238C1278.61 355.442 1275.96 364.394 1276.47 373.851C1276.97 385.073 1276.47 393.016 1276.47 403.734C1276.47 407.516 1278.48 413.19 1278.48 416.847C1278.48 425.295 1275.71 436.895 1275.96 446.604C1276.47 465.517 1276.59 484.682 1276.47 503.847C1276.47 506.369 1277.85 509.395 1277.47 511.161C1277.47 511.917 1275.83 511.791 1275.58 512.421C1274.95 513.682 1274.95 515.448 1274.19 516.456C1273.19 517.717 1265.11 518.348 1262.97 518.474C1246.44 519.23 1227.27 517.213 1210.62 517.717C1204.56 517.843 1205.57 518.852 1198 517.717C1194.22 517.087 1193.84 520.239 1190.43 515.069C1187.03 509.9 1188.67 503.469 1188.42 497.417C1187.66 483.043 1186.52 466.021 1186.9 451.647C1187.53 427.816 1187.79 405.373 1187.53 381.29C1187.41 358.846 1188.16 335.646 1187.53 312.95C1187.28 302.611 1187.53 297.694 1188.29 287.607C1189.17 276.259 1186.4 267.811 1186.52 258.606C1186.52 256.337 1188.16 254.319 1188.42 251.167C1189.55 236.793 1187.41 218.637 1187.53 203.38C1187.66 184.971 1187.79 166.814 1188.29 148.153C1188.42 143.74 1185.64 142.227 1189.8 137.436C1195.23 131.131 1199.01 133.527 1203.43 138.949C1207.84 144.371 1207.21 147.775 1209.61 153.449C1213.65 163.032 1218.19 172.11 1220.33 182.449L1220.2 182.575ZM1192.7 152.566C1190.69 153.071 1191.44 156.349 1192.7 156.223C1194.34 156.223 1195.86 151.81 1192.7 152.566ZM1207.21 155.466C1200.78 155.719 1207.59 167.571 1209.1 160.51C1209.73 157.862 1206.33 158.24 1207.21 155.466ZM1219.32 237.802H1217.43V240.576H1219.32V237.802ZM1220.71 266.802L1219.32 268.189L1221.59 269.576L1222.98 268.189L1220.71 266.802ZM1233.32 309.798C1236.35 307.402 1229.92 302.611 1228.66 307.529C1228.15 309.672 1232.44 310.555 1233.32 309.798ZM1254.89 334.133C1252.75 333.755 1251.49 334.89 1250.23 336.529C1251.36 338.294 1252.88 338.042 1254.89 337.916V334.133ZM1233.32 335.142C1231.43 335.142 1229.79 334.764 1228.66 336.529C1229.92 338.168 1231.18 339.303 1233.32 338.924V335.142ZM1192.7 446.477L1191.32 447.864L1193.59 449.251L1194.98 447.864L1192.7 446.477ZM1194.98 461.482C1191.32 461.482 1191.19 465.138 1194.98 465.265V461.482ZM1215.16 478.252C1215.16 478.252 1212.89 481.278 1212.89 481.53C1213.14 484.304 1221.21 482.665 1215.16 478.252ZM1208.09 493.256H1205.32C1205.32 496.66 1208.09 496.66 1208.09 493.256ZM1203.43 509.143C1203.68 507.252 1203.3 505.487 1201.16 505.361L1199.77 506.747L1202.17 509.017H1203.55L1203.43 509.143Z" fill="white"/>
<path d="M1460.76 18.7871C1460.76 18.7871 1460.26 16.0132 1463.54 16.8958L1462.53 15.0045H1469.09L1468.21 8.82615L1462.53 7.06092L1464.42 2.90002C1470.48 4.66525 1471.23 9.83486 1471.74 15.5088C1473.25 34.8003 1469.85 55.2265 1471.74 75.5267C1472.12 78.805 1473 86.1181 1469.97 88.0094L1468.58 84.2268C1464.8 82.0833 1467.2 88.5137 1468.21 90.279C1468.84 91.4138 1470.6 91.5399 1470.86 92.4225C1471.74 95.4486 1471.11 98.6008 1468.08 99.7356C1470.86 100.618 1471.61 105.283 1471.86 108.183C1472.12 112.344 1471.86 121.044 1470.86 124.827C1470.6 125.836 1468.71 125.205 1468.96 125.962C1472.62 128.736 1470.1 133.779 1470.35 137.184C1471.11 147.271 1470.98 156.727 1471.11 167.067C1471.23 181.819 1471.74 196.949 1470.98 212.08L1468.96 213.845L1469.97 215.737L1471.86 215.232C1470.73 225.824 1469.72 237.171 1472.87 247.511L1469.09 248.519C1472.5 249.906 1470.86 257.598 1470.98 261.633C1470.98 264.406 1473.5 266.172 1469.97 267.306C1472.5 272.098 1470.86 274.998 1470.98 279.285C1470.98 301.476 1471.49 323.29 1470.48 344.851C1470.48 346.616 1473 350.398 1470.1 353.298C1466.82 352.29 1465.43 353.298 1462.66 354.685L1464.42 359.855L1471.86 360.233C1472.75 361.242 1470.22 367.294 1470.1 369.186C1469.97 373.599 1472.12 375.616 1469.97 381.164C1467.45 387.594 1464.04 385.451 1458.87 383.56L1461.14 386.334L1455.97 384.694C1455.59 381.164 1451.93 377.633 1450.92 374.986C1448.4 368.303 1446.89 360.99 1444.49 354.181C1431.12 314.968 1415.86 276.763 1402.11 237.424C1399.96 231.371 1398.95 224.058 1396.43 217.754C1395.29 214.98 1392.77 212.963 1391.89 210.063C1391.13 207.541 1391.64 205.019 1390.88 202.623C1390.25 200.48 1387.98 199.597 1387.09 197.958C1385.08 194.049 1385.08 188.754 1384.45 184.719C1383.82 181.062 1380.79 178.541 1384.7 174.758C1382.3 174.758 1381.17 165.68 1380.91 163.032C1380.54 156.475 1384.07 152.188 1381.92 146.136L1383.82 146.64C1384.7 144.119 1382.18 145.127 1381.92 144.119C1381.67 142.984 1381.67 136.175 1381.92 135.04C1382.18 133.905 1385.96 133.401 1385.71 131.131L1381.92 130.627C1381.04 129.871 1382.68 118.523 1382.55 116.253C1382.43 113.984 1380.54 110.957 1380.91 108.814C1380.91 108.31 1385.83 107.679 1380.91 105.914C1381.42 105.41 1382.3 104.779 1382.43 104.023C1383.06 95.1964 1382.05 82.4615 1381.92 73.0049C1381.92 64.3049 1381.54 58.757 1381.92 49.6787C1382.05 45.6438 1379.02 44.1308 1383.69 42.2395C1378.77 40.3481 1381.92 37.322 1381.92 32.909C1381.92 25.2176 1380.16 18.5349 1382.05 10.5914C1385.08 -2.01741 1398.45 4.28699 1408.03 1.51305C1408.29 3.40437 1405.76 2.0174 1405.26 2.39567C1402.23 5.1696 1410.94 10.8436 1409.04 2.39567C1411.19 2.77393 1413.33 1.38696 1415.23 1.38696C1417.75 1.38696 1418.76 2.77393 1419.89 2.90002C1422.79 3.15219 1426.83 0.756523 1429.23 4.28699L1430.24 2.39567C1434.4 3.15219 1438.44 1.51305 1442.22 1.38696C1444.11 1.38696 1445.75 2.26958 1447.77 2.26958C1451.3 2.26958 1452.56 -0.756532 1455.21 5.1696C1455.84 6.43048 1455.59 6.55657 1456.73 8.70007C1459.38 13.8697 1461.65 14.6262 1456.1 19.6697L1457.74 23.8306L1459.63 23.3263L1458.62 18.7871C1458.75 17.7784 1460.39 18.2828 1460.51 18.1567L1462.91 21.9393L1466.19 19.1654C1466.19 17.4001 1460.76 17.6523 1460.64 18.2828L1460.76 18.7871ZM1413.96 9.45659L1417.5 7.94354V3.90872C1416.11 3.78263 1417.12 5.42178 1416.11 6.80875C1415.6 7.43919 1413.21 7.18701 1413.96 9.45659ZM1404.63 15.0045C1406.65 12.2305 1402.11 8.95224 1399.08 10.3392L1401.85 15.5088C1401.85 15.5088 1404.63 15.1306 1404.63 15.0045ZM1452.19 14.374C1448.28 9.83486 1437.3 17.5262 1444.36 22.5697C1450.42 26.9828 1455.21 17.7784 1452.19 14.374ZM1415.86 24.4611C1414.97 20.4262 1416.99 15.761 1411.69 14.2479C1404 15.761 1407.66 23.7045 1413.96 20.8045C1414.09 22.6958 1412.95 25.2176 1415.86 24.5872V24.4611ZM1429.98 18.7871C1431.25 18.5349 1433.52 16.0132 1432.76 15.0045L1430.11 16.0132V18.661L1429.98 18.7871ZM1409.3 22.5697C1407.53 21.9393 1404.76 25.2176 1405.51 26.3524C1407.53 25.848 1408.67 24.7132 1409.3 22.5697ZM1415.86 28.1176L1414.47 25.3437L1413.08 26.7306V28.1176H1415.86ZM1417.75 30.0089H1415.86V33.7916H1416.74L1417.62 30.0089H1417.75ZM1390.63 43.1221L1390.12 36.5655C1386.59 39.0873 1385.33 41.9873 1390.63 43.1221ZM1437.68 42.996C1437.05 42.3656 1436.54 38.3307 1434.15 37.5742L1434.4 40.8525L1432.76 43.1221L1435.16 44.0047L1434.65 46.9047L1440.2 45.0134C1440.96 41.9873 1438.44 43.7525 1437.68 42.996ZM1405.51 38.4568L1401.48 39.3394L1400.84 42.1134C1401.48 42.7438 1406.4 40.4742 1405.51 38.3307V38.4568ZM1406.52 39.4655C1406.14 41.7351 1408.41 42.1134 1409.8 43.1221L1411.19 41.7351C1409.93 40.096 1408.67 38.9612 1406.52 39.3394V39.4655ZM1427.08 41.2308C1427.08 41.2308 1424.31 41.9873 1424.31 42.6177C1424.31 45.2656 1428.47 42.6177 1427.08 41.2308ZM1444.87 45.896L1438.31 47.283C1440.58 50.8134 1444.36 50.0569 1444.87 45.896ZM1434.27 47.9134C1431.37 48.796 1430.87 54.9743 1435.91 53.3352C1438.69 52.4526 1437.81 46.7786 1434.27 47.9134ZM1416.36 56.2352L1414.97 58.5048L1416.36 59.8918L1417.75 57.6222L1416.36 56.2352ZM1390.63 58.1265L1388.23 59.0092L1387.73 62.7918H1388.61L1390.5 58.1265H1390.63ZM1435.53 66.5744C1437.05 65.944 1438.69 64.557 1438.31 62.7918C1436.8 63.4222 1435.16 64.8092 1435.53 66.5744ZM1467.32 69.3484C1469.09 67.5831 1464.3 63.5483 1463.54 67.0788C1463.16 69.0962 1466.57 70.1049 1467.32 69.3484ZM1413.71 85.4876C1413.71 85.4876 1410.68 83.8485 1410.18 84.3528L1412.95 90.9094C1415.35 90.5312 1414.59 86.8746 1413.59 85.6137L1413.71 85.4876ZM1424.31 95.5747L1421.53 90.9094V94.9442L1424.31 95.5747ZM1395.8 92.8007C1393.53 93.3051 1394.41 97.0877 1396.68 96.5834C1398.95 96.079 1398.07 92.2964 1395.8 92.8007ZM1434.53 101.123H1431.75C1431.25 107.679 1436.42 107.301 1434.53 101.123ZM1399.96 105.788C1400.72 104.779 1398.45 102.383 1397.19 102.005V104.653L1399.96 105.662V105.788ZM1459.88 114.236L1464.17 110.957L1462.15 106.797L1459.75 114.236H1459.88ZM1398.57 133.023C1396.3 133.653 1397.56 136.553 1400.47 135.797C1402.74 135.166 1401.48 132.266 1398.57 133.023ZM1448.15 142.353C1445.88 142.858 1446.51 147.649 1449.03 147.019C1451.3 146.514 1450.67 141.723 1448.15 142.353ZM1412.7 146.262C1410.43 146.892 1409.04 150.297 1411.57 151.684L1415.73 147.523C1414.72 146.262 1414.34 145.884 1412.58 146.262H1412.7ZM1399.96 157.358C1399.84 153.953 1397.82 152.062 1394.41 152.693L1395.8 157.484H1400.09L1399.96 157.358ZM1469.22 157.358C1469.47 155.971 1469.22 154.079 1467.7 153.701C1467.32 153.701 1460.76 154.206 1459.88 155.088L1467.7 155.593L1469.22 157.484V157.358ZM1455.21 160.132L1457.11 158.745L1455.72 156.475L1455.21 160.258V160.132ZM1456.1 162.023H1454.2L1453.19 164.797H1455.97V162.023H1456.1ZM1470.1 166.688L1465.94 162.275C1462.15 163.284 1463.03 168.327 1457.99 165.806V168.58L1460.76 167.697L1462.15 170.345L1470.1 166.688ZM1389.74 181.567C1395.42 181.567 1391.51 172.488 1388.36 173.119C1384.95 173.875 1390 179.801 1389.74 181.567ZM1403.62 182.701C1400.72 180.936 1398.07 182.197 1398.2 185.854C1399.71 188.123 1401.6 186.484 1403.75 186.232V182.701H1403.62ZM1392.52 188.123C1394.41 188.628 1397.56 186.736 1397.19 184.845C1396.56 181.062 1392.01 187.619 1392.52 188.123ZM1391.51 185.349H1387.73C1387.73 189.132 1391.51 189.006 1391.51 185.349ZM1459.88 192.915H1456.1C1455.21 193.671 1459.63 197.202 1456.6 197.58C1454.08 197.958 1453.07 191.654 1451.93 194.806C1451.05 197.328 1451.93 199.723 1453.32 201.867C1458.62 203.506 1458.24 196.319 1459.88 192.915ZM1449.54 193.797C1443.73 193.797 1443.1 199.345 1449.54 198.462V193.797ZM1427.59 195.689C1425.32 195.689 1425.32 200.354 1427.59 200.354C1429.86 200.354 1429.86 195.689 1427.59 195.689ZM1394.29 201.236C1394.66 196.571 1391.13 196.571 1391.51 201.236H1394.29ZM1405.51 197.58H1402.74L1403.75 200.354H1405.64V197.58H1405.51ZM1454.2 208.802L1455.97 205.397L1454.71 203.254L1452.56 206.658L1454.33 208.802H1454.2ZM1450.55 205.902C1448.53 203.254 1448.28 211.45 1450.04 211.45C1452.19 211.45 1450.04 206.658 1450.55 205.902ZM1404.5 225.697H1400.84L1403.24 230.237C1405.26 228.724 1405.64 227.967 1404.5 225.697ZM1428.47 227.463L1427.08 228.85L1429.35 230.237L1430.74 228.85L1428.47 227.463ZM1466.44 260.246L1465.56 255.959C1458.11 254.319 1460.51 261.128 1466.44 260.246ZM1427.08 273.359C1427.34 271.593 1425.95 270.207 1424.31 270.585L1425.32 273.359H1427.21H1427.08ZM1467.32 274.241C1468.84 273.611 1470.48 272.224 1470.1 270.459C1468.58 271.089 1466.94 272.476 1467.32 274.241ZM1454.2 273.359C1452.69 271.846 1449.92 274.62 1451.43 276.133C1452.94 277.646 1455.72 274.872 1454.2 273.359ZM1460.01 289.12L1458.87 287.354C1459.12 291.641 1453.7 288.363 1454.2 292.02L1463.54 291.137C1464.04 287.354 1460.39 289.498 1460.01 289.12ZM1461.9 296.559C1461.14 295.802 1462.53 293.659 1460.76 293.911L1458.87 303.242L1465.05 300.468C1466.31 296.433 1462.28 297.063 1461.9 296.559ZM1462.66 309.798C1461.02 308.033 1458.49 313.581 1461.27 313.455C1462.28 313.455 1463.29 310.302 1462.66 309.798ZM1446.26 310.807L1444.87 313.076L1446.26 314.463L1447.64 312.194L1446.26 310.807ZM1461.77 338.798L1464.55 336.529L1463.16 333.25C1461.14 334.637 1462.53 336.907 1461.77 338.798Z" fill="white"/>
<path d="M100.916 334.133L98.1411 333.755C93.5998 338.42 97.3842 338.294 101.925 337.916C102.43 338.42 100.159 346.111 100.159 347.751C100.286 352.416 103.313 354.938 101.925 362.755C101.169 367.042 95.7443 374.481 101.925 374.859C99.9071 387.216 99.6548 399.825 103.313 411.803C103.691 413.064 105.079 413.947 105.457 415.208C106.593 418.36 103.818 420.756 109.368 421.134C110.125 424.916 103.313 421.134 103.818 425.799C106.34 424.79 109.999 425.925 110.882 423.025C115.928 429.96 125.01 429.708 131.065 435.634C135.859 440.299 143.68 459.086 144.058 465.769C144.184 468.417 142.797 470.938 143.049 474.091C143.301 476.865 145.446 478.756 145.067 481.53C144.689 483.799 141.787 484.934 141.535 487.33C141.283 489.221 143.427 491.239 143.049 493.508C143.049 494.265 136.994 505.613 136.111 507.252C134.849 509.395 129.677 517.087 127.533 517.591C125.767 517.969 124.884 516.204 123.875 516.078C122.613 515.826 120.973 516.961 119.333 516.835C105.457 515.448 89.6893 513.682 76.3179 510.152C70.3891 508.639 63.5772 506.243 57.7745 504.352C49.7012 501.704 38.6004 492.626 31.6624 487.33C27.7519 484.43 20.6878 483.547 23.3368 476.486C21.0662 478.252 21.6969 474.847 18.6694 475.604L22.4538 467.66L20.1832 466.273L15.0112 471.443L2.90126 445.217L5.67646 443.325C0.882935 441.434 3.65813 439.038 3.40584 435.76C3.02741 431.851 1.13523 428.069 3.78428 423.656L1.00908 423.151C1.76595 420.125 2.27053 417.477 1.8921 414.199C-0.126228 393.268 1.63981 371.203 2.27053 350.272C2.27053 346.364 1.13523 341.446 1.8921 337.537C2.27053 335.646 4.03657 334.511 4.28886 333.377C4.54115 332.368 3.02741 331.485 3.02741 330.224C3.02741 326.316 9.33468 326.568 12.1099 326.82C11.7314 336.655 23.2107 337.159 20.9401 326.82C22.3277 323.794 30.401 326.063 34.0592 325.937C38.3481 325.685 43.0155 323.542 47.1783 323.92C49.4489 324.172 47.809 326.063 49.4489 325.937C49.0705 322.281 53.864 324.803 56.2608 324.676C66.4785 324.046 89.3109 318.75 97.6365 324.046C101.547 326.568 102.935 329.972 100.79 334.259L100.916 334.133ZM84.1389 331.359C84.1389 331.359 83.382 328.585 82.7513 328.585C80.1022 328.585 82.7513 332.746 84.1389 331.359ZM88.554 329.72C84.7696 327.955 86.1572 335.898 89.5632 336.15L88.8063 338.798L91.203 339.807C93.5998 338.42 92.7168 333.124 91.4553 331.611C91.203 331.359 89.9416 331.611 89.3109 330.981C88.9324 330.729 88.9324 329.72 88.8063 329.72H88.554ZM27.8781 332.368C26.112 329.594 20.057 334.764 25.6074 337.916C28.0042 338.42 28.6349 333.503 27.8781 332.368ZM25.1029 350.02C21.6969 344.724 22.3277 335.646 14.0021 342.203C10.7223 349.138 17.7864 357.081 22.4538 349.264L25.1029 350.02ZM46.6737 343.464C45.7907 342.455 42.8894 345.229 43.8985 346.238C44.9077 347.246 47.6829 344.472 46.6737 343.464ZM81.2376 351.911L76.5702 348.129C75.4349 349.516 79.5977 352.29 81.2376 351.911ZM9.20853 358.468C9.20853 358.468 5.55031 357.585 4.54115 356.577V358.468L8.70395 359.477C9.33468 359.729 9.33468 358.594 9.20853 358.594V358.468ZM83.8866 356.829C71.7767 357.964 78.7147 372.464 87.7971 366.412C91.5815 363.89 89.9416 356.198 83.8866 356.829ZM34.6899 368.555C34.3115 367.546 37.7174 360.485 30.1487 364.016L30.7794 374.229C34.4376 375.742 37.9697 373.473 36.2036 369.438C35.8252 368.681 34.6899 368.681 34.6899 368.555ZM38.222 374.355C37.5912 373.725 34.0592 375.868 33.4285 376.625C29.1395 382.425 39.3573 384.568 38.222 374.355ZM19.0479 377.255C15.7681 378.264 18.6694 383.686 20.9401 384.694C24.9767 383.055 22.7061 376.12 19.0479 377.255ZM27.8781 380.029H25.1029V381.92H27.8781V380.029ZM97.8888 398.06L95.7443 396.799L94.3567 400.455C96.375 399.321 98.141 403.86 99.9071 402.347C101.169 401.212 97.0057 399.573 97.8888 397.934V398.06ZM11.1007 401.59H8.32551V403.481H11.1007V401.59ZM94.9874 413.064C94.9874 413.064 90.8246 411.551 90.5723 411.803C90.5723 414.955 93.5998 415.838 96.1227 415.586C96.1227 415.586 95.1136 413.316 94.8613 413.064H94.9874ZM42.8894 414.577C41.1233 414.325 39.7357 415.712 40.1142 417.351H42.8894V414.577ZM28.8872 418.36C28.8872 418.36 29.6441 421.134 30.2748 421.134C32.9239 421.134 30.2748 416.973 28.8872 418.36ZM20.3093 426.682C20.8139 425.295 20.5616 420.629 18.0387 421.134C14.6328 423.782 16.1465 428.951 20.3093 426.682ZM91.0769 422.521C90.4462 421.89 91.0769 420.756 89.6893 421.134C90.8246 424.538 86.5357 424.286 86.0311 426.429C84.2651 433.112 97.258 428.951 91.0769 422.521ZM98.1411 427.69V423.025H97.258L95.3658 427.69H98.1411ZM40.9972 431.473C42.0063 430.338 38.4743 427.564 37.7174 426.808L34.4376 430.086L35.8252 432.356L38.6004 429.582C38.6004 429.582 39.2311 433.364 40.871 431.473H40.9972ZM18.5433 438.912C18.7956 437.147 18.5433 436.138 17.1557 435.13L15.7681 436.516L18.5433 438.912ZM65.8478 438.03L64.4602 439.417L66.7308 440.803L68.1184 439.417L65.8478 438.03ZM114.035 438.912L111.26 437.903C111.008 439.29 111.639 439.921 112.648 440.677H114.035V438.786V438.912ZM42.8894 449.251C42.0063 447.36 39.4834 445.469 37.2128 445.469C38.0958 447.36 40.6187 449.251 42.8894 449.251ZM45.4123 450.26C42.0063 451.269 44.9077 456.691 48.0613 455.808C50.5842 455.051 50.2058 448.747 45.4123 450.26ZM32.6716 453.917C32.6716 453.917 35.4468 453.16 35.4468 452.53C35.4468 449.882 31.284 452.53 32.6716 453.917ZM14.8851 459.591V456.817L12.1099 459.212L14.8851 459.717V459.591ZM57.9007 470.812C58.0268 467.156 57.9007 462.365 54.1163 460.473L54.4947 465.138L57.7745 470.686L57.9007 470.812ZM31.6624 473.586C28.8872 468.039 25.8597 472.326 29.3918 473.586C29.8964 473.839 31.0317 473.586 31.6624 473.586ZM45.5384 477.117C47.5567 475.099 46.5476 472.073 44.4031 470.812C42.0063 473.082 39.6096 474.847 41.1233 478.252C41.754 478.63 44.9077 477.747 45.5384 477.117ZM54.1163 483.926C61.3066 483.043 57.9007 477.873 54.4947 482.034C53.9902 482.665 53.9902 483.043 54.1163 483.926ZM61.1804 485.439C61.685 484.556 62.568 483.926 62.3158 482.665L59.6667 480.143V484.682L55.8823 486.195L62.9465 491.365C64.9648 489.978 64.9648 488.086 62.9465 486.699L59.6667 488.591C58.7837 485.817 60.802 486.069 61.1804 485.439ZM100.916 482.917C104.322 482.917 104.322 480.143 100.916 480.143V482.917ZM65.3432 497.921C65.3432 497.921 61.9373 493.256 60.6759 494.139L59.7928 498.804C62.3157 499.939 63.0726 498.426 65.4694 497.795L65.3432 497.921Z" fill="white"/>
<path d="M207.383 12.4827L206.626 14.1219L210.915 13.2393L211.798 15.0045C217.348 13.7436 229.458 19.0393 234.378 22.1915C236.775 23.8306 238.667 26.1002 237.405 29.0003L240.181 27.4872C243.082 28.1176 242.704 31.3959 243.839 32.2785C244.596 32.7829 246.11 31.7742 247.119 32.5307C250.02 34.6742 259.859 44.7612 262.004 47.6613C264.527 50.9396 269.699 58.1266 266.293 61.657C269.446 61.4049 270.077 63.1701 271.212 65.6918C273.735 71.4919 275.375 77.5441 276.637 83.7224L272.852 84.605C276.889 86.7485 278.277 92.4225 278.529 96.8356C278.655 100.744 276.763 104.149 276.511 108.057C276.384 110.705 277.898 116.379 277.267 118.144C276.132 121.423 272.978 120.54 275.754 126.592C277.772 131.005 280.169 129.366 275.501 135.166C280.673 141.219 276.763 148.784 277.394 156.727C277.646 158.997 279.16 160.636 279.16 162.275C279.16 165.806 274.492 173.371 270.834 174.506C262.13 177.154 245.353 172.993 235.639 175.01C232.99 175.262 229.458 173.371 227.188 173.245C226.683 173.245 226.809 174.884 225.674 175.262C221.89 176.775 217.096 174.506 213.059 174.38C206.5 174.254 189.723 176.397 184.677 174.38C180.766 172.867 177.234 166.31 177.108 162.275C177.108 159.123 179.126 153.449 179 150.171C178.874 147.271 174.585 143.236 180.009 143.992L177.234 143.11C180.892 125.205 179.757 109.066 168.656 94.1877C163.232 86.8746 158.186 87.2529 151.627 83.092C144.31 78.4267 137.372 52.3265 136.994 43.5004C136.868 40.4743 138.634 27.1089 139.643 24.7133C140.526 22.5698 142.166 22.6959 142.418 22.3176C142.67 21.9393 141.535 18.1567 143.049 13.9958C146.833 4.91745 152.888 -0.504331 163.232 2.10926e-05C169.665 0.252197 183.92 3.53048 190.858 5.16963C192.119 5.4218 193.255 6.93486 195.147 7.43921C197.796 8.19574 202.589 7.43921 203.346 7.5653C204.986 8.06965 204.734 12.1045 207.509 12.3566L207.383 12.4827ZM263.77 54.3439C263.518 51.4439 256.075 46.4004 255.444 50.183C255.444 50.5613 256.453 55.9831 256.832 56.3613C260.49 59.2614 259.859 53.7135 263.77 54.3439ZM181.397 62.7918C181.397 62.7918 178.622 63.5484 178.622 64.1788C178.622 66.8266 182.785 64.1788 181.397 62.7918ZM259.102 93.6834L258.219 91.7921C257.841 93.9356 258.976 95.1964 260.49 96.4573L262.761 93.179L259.102 93.6834ZM268.437 91.7921L263.77 92.6747V94.0616C265.914 96.9617 269.194 95.1964 268.437 91.7921ZM237.405 99.3573H234.756V102.005H238.541L237.532 99.3573H237.405ZM225.422 104.023L220.754 103.14C222.142 104.905 222.52 105.536 221.637 107.805C224.412 108.183 225.8 106.923 225.422 104.023ZM262.887 105.788L264.779 104.401C263.77 103.014 262.761 102.762 261.121 103.014L263.013 105.788H262.887ZM272.222 110.579C272.222 110.579 268.563 110.327 268.059 111.462L268.563 113.353L263.896 114.236C265.788 115.749 274.745 112.597 272.348 110.453L272.222 110.579ZM264.779 140.462C264.401 133.653 259.859 137.184 260.995 142.353H263.77L261.878 140.462H264.653H264.779ZM270.834 138.571C268.563 139.075 269.446 142.858 271.717 142.353C273.988 141.849 273.105 138.066 270.834 138.571ZM218.736 139.579L215.961 139.958C217.601 141.471 217.474 142.984 216.97 145.001L219.745 146.01L218.736 139.579ZM258.219 153.575C259.229 154.836 262.761 154.458 261.878 151.306C260.742 147.145 257.21 152.44 258.219 153.575ZM276.006 157.358L269.446 156.475C269.194 158.997 269.446 161.519 272.726 161.14L276.006 157.358Z" fill="white"/>
<path d="M1113.86 91.5399C1113.86 91.5399 1111.85 86.7485 1112.22 91.9181L1107.05 90.0268L1107.94 92.8008C1101.12 93.6834 1094.56 92.5486 1087.75 92.8008C1080.94 93.0529 1072.49 94.8182 1065.42 93.6834C1062.9 93.3051 1059.62 91.0355 1056.72 91.1616C1054.2 91.1616 1051.8 94.0616 1046.63 93.8095C1035.02 93.3051 1031.24 87.379 1030.23 76.4093C1029.85 71.7441 1031.24 68.2136 1031.24 64.3049C1031.24 48.4178 1027.83 33.9177 1031.62 17.9045C1032 16.3914 1033.26 13.1132 1034.39 12.2305C1035.65 11.3479 1045.62 9.07834 1047.51 9.07834C1053.19 8.95225 1061.01 9.45661 1067.19 9.45661C1080.06 9.45661 1092.67 10.5914 1105.66 10.4653C1115.38 10.4653 1122.95 6.93485 1131.9 14.1219C1131.9 19.4176 1133.16 25.3437 1133.29 30.5133C1133.67 40.096 1132.41 49.3004 1132.28 58.6309C1132.28 65.8179 1134.05 77.418 1132.79 83.4702C1131.15 91.792 1121.05 95.0703 1113.86 91.5399ZM1099.48 76.7876L1093.43 72.1223L1091.28 75.5267L1093.68 78.5528L1099.61 76.7876H1099.48ZM1112.6 81.4528C1109.2 78.4267 1108.69 87.5051 1112.1 83.3442C1112.6 82.7137 1112.85 81.705 1112.6 81.4528ZM1104.28 85.2355C1101.88 84.9833 1101.12 86.7485 1101.5 89.0181L1104.28 86.6224V85.2355Z" fill="white"/>
<path d="M505.213 424.034C505.213 424.034 504.33 428.069 508.492 427.69C511.52 427.438 512.529 423.151 513.16 423.025C522.368 426.303 547.597 419.621 552.139 430.717C554.283 435.76 551.003 438.786 551.003 443.199C551.003 445.469 552.012 447.486 552.012 449.63C552.012 461.104 551.129 471.191 551.508 482.413C551.76 488.339 555.04 501.704 547.724 504.352C542.678 504.352 536.37 507.126 531.829 507.252C528.928 507.252 526.531 506.243 524.26 506.243C505.465 506.243 485.282 508.135 466.234 507.252C457.908 506.874 453.241 504.856 449.078 497.417C449.456 495.526 450.087 493.761 450.087 491.743C449.582 473.713 447.816 452.782 450.087 434.751C451.979 420.251 460.809 423.908 472.919 423.908C478.722 423.908 482.885 425.295 486.921 425.295C493.103 425.295 492.472 422.773 501.302 424.286C502.437 424.538 504.834 423.529 505.213 423.908V424.034ZM469.64 428.699C469.892 426.934 468.504 425.547 466.864 425.925L467.873 428.699H469.766H469.64ZM480.866 429.582C480.74 424.79 473.172 426.303 473.424 430.464L480.866 429.582ZM452.862 469.804C452.862 469.804 455.637 469.047 455.637 468.417C455.637 465.769 451.475 468.417 452.862 469.804ZM455.637 488.591C455.133 486.7 453.619 486.447 451.853 486.7C452.358 488.591 453.871 488.843 455.637 488.591Z" fill="white"/>
<path d="M542.425 95.3225C541.038 96.2051 529.306 94.692 526.153 94.566C520.855 94.566 515.304 95.3225 509.375 94.566C506.852 94.1877 503.194 92.0442 500.797 92.2964C498.527 92.4225 496.256 95.0703 492.85 92.6746C493.986 89.2703 491.463 85.992 489.57 83.4702C486.417 81.9572 489.949 91.0355 490.958 91.4138C488.94 93.9355 484.525 93.5573 484.399 90.0268L483.011 91.9181C481.245 91.1616 478.596 91.4138 478.848 89.0181H477.965C478.344 91.5398 472.793 92.5486 470.901 92.5486C468.504 92.5486 450.844 88.7659 450.087 87.8833C447.564 84.9833 449.078 79.9398 448.952 77.2919C447.69 59.5135 450.465 43.3742 451.727 25.7219C451.853 23.7045 450.718 21.9393 450.97 19.4175C452.61 0.378241 473.172 8.44787 486.165 9.33049C504.456 10.7175 528.171 9.70875 545.705 13.3653C550.12 14.2479 554.535 20.8045 554.788 24.9654C554.914 27.6132 551.256 37.5742 551.129 40.8525C550.751 50.0569 553.022 61.657 551.129 71.6179C549.237 75.5267 549.616 91.6659 546.462 93.0529C545.831 93.3051 544.444 92.5485 543.687 93.0529C543.056 93.5573 542.93 94.9442 542.552 95.1964L542.425 95.3225ZM522.621 45.896C519.593 46.5264 523.756 52.0743 525.9 51.0656L527.793 49.1743C526.405 47.7873 525.017 45.3916 522.621 45.896ZM511.394 80.5702L508.114 83.8485C511.015 87.3789 514.926 83.4702 511.394 80.5702ZM478.091 83.3441C482.759 85.2355 482.885 81.0745 478.091 81.4528V83.3441ZM507.862 85.3615C507.862 85.3615 505.843 84.605 505.213 84.2267C505.213 86.1181 504.96 87.7572 506.6 88.892H507.988C507.862 87.7572 508.366 86.1181 507.862 85.3615Z" fill="white"/>
<path d="M1065.8 424.034C1060.88 429.456 1066.18 432.734 1070.09 427.69C1071.48 425.925 1069.84 422.647 1073.75 423.025C1076.78 423.277 1072.49 426.934 1073.25 427.69L1076.02 427.186V423.025C1077.53 424.16 1079.55 423.529 1080.94 424.034C1081.82 424.286 1081.57 425.799 1082.2 425.799C1084.47 425.799 1090.4 424.16 1093.3 423.908C1095.32 423.782 1097.34 423.908 1099.36 423.908C1097.84 427.06 1101.38 428.069 1104.02 427.69L1102.13 423.529C1103.27 422.395 1105.54 423.908 1107.3 424.034C1114.37 424.538 1127.11 421.512 1128.37 430.59L1131.15 429.582C1131.15 435.003 1132.91 441.686 1133.04 446.856C1133.29 460.851 1132.03 475.73 1132.03 489.852C1132.03 491.743 1133.16 493.76 1133.04 495.4C1133.04 496.03 1129.51 504.73 1129.13 505.108C1127.11 507.126 1115.63 506.117 1111.97 506.243C1107.56 506.369 1103.9 507.756 1098.98 507.126C1089.39 505.865 1081.95 507 1071.86 507.126C1062.78 507.252 1052.94 507.252 1043.73 507.126C1038.56 507.126 1032 504.856 1030.61 499.56C1029.73 496.408 1028.34 490.356 1032.12 489.726L1030.1 488.717L1031.87 480.017C1027.08 478.882 1030.23 475.352 1030.23 471.947C1030.23 467.534 1025.94 456.312 1033 456.438L1030.23 455.556C1032.63 452.025 1030.23 447.864 1030.23 444.712C1030.23 439.921 1031.87 434.247 1031.11 429.077C1031.11 428.825 1033.26 426.934 1033.76 426.682C1039.94 422.521 1047.89 423.908 1054.95 423.782C1058.36 423.782 1061.77 422.143 1065.8 423.782V424.034ZM1042.59 431.599C1040.95 433.995 1045.49 439.417 1047.64 436.264C1050.16 432.608 1044.36 429.077 1042.59 431.599ZM1058.23 438.156L1053.06 437.147L1050.79 438.534C1052.68 442.317 1050.29 447.36 1055.21 448.117C1057.22 448.369 1059.12 447.108 1061.01 447.36C1062.02 444.208 1059.5 443.451 1058.74 441.686C1058.11 440.551 1058.49 438.534 1058.11 438.156H1058.23ZM1092.04 438.912L1089.64 438.03L1088.26 439.921L1092.04 440.804V438.912ZM1123.83 484.808C1121.31 487.204 1112.48 479.513 1111.72 483.421C1111.34 485.565 1120.05 488.213 1121.56 489.473L1123.96 484.808H1123.83ZM1095.32 486.7L1093.93 488.969L1095.32 490.356L1096.71 488.086L1095.32 486.7ZM1117.27 489.473C1115 489.221 1112.35 489.473 1112.6 492.247L1117.27 491.365V489.473ZM1056.47 495.147C1056.47 491.743 1053.69 491.743 1053.69 495.147H1056.47ZM1103.27 497.921C1103.27 497.921 1099.61 498.3 1099.61 499.308C1099.61 502.082 1105.16 499.561 1103.27 497.921Z" fill="white"/>
<path d="M1011.56 96.4573L1011.06 104.905L1008.66 103.518C1013.07 101.123 1009.04 98.979 1006.77 96.4573H1011.43H1011.56Z" fill="white"/>
<path d="M9.20855 71.2397H6.43335L7.31637 66.5745H8.32553L9.20855 71.2397Z" fill="white"/>
<path d="M12.9929 63.8005V65.5657H9.2085V62.7917L12.9929 63.8005Z" fill="white"/>
</g>
<defs>
<clipPath id="clip0_22600_232">
<rect width="1473" height="518.726" fill="white"/>
</clipPath>
</defs>
</svg>
